<?xml version="1.0" encoding="UTF-8" standalone="no"?>
<svg
   xmlns:dc="http://purl.org/dc/elements/1.1/"
   xmlns:cc="http://creativecommons.org/ns#"
   xmlns:rdf="http://www.w3.org/1999/02/22-rdf-syntax-ns#"
   xmlns:svg="http://www.w3.org/2000/svg"
   xmlns="http://www.w3.org/2000/svg"
   xmlns:sodipodi="http://sodipodi.sourceforge.net/DTD/sodipodi-0.dtd"
   xmlns:inkscape="http://www.inkscape.org/namespaces/inkscape"
   version="1.1"
   id="svg10"
   xml:space="preserve"
   width="50mm"
   height="50mm"
   viewBox="0 0 188.97637 188.97637"
   sodipodi:docname="2020.svg"
   inkscape:version="1.0.1 (3bc2e813f5, 2020-09-07)"><metadata
     id="metadata16"><rdf:RDF><cc:Work
         rdf:about=""><dc:format>image/svg+xml</dc:format><dc:type
           rdf:resource="http://purl.org/dc/dcmitype/StillImage" /><dc:title></dc:title></cc:Work></rdf:RDF></metadata><defs
     id="defs14"><rect
       x="46.058663"
       y="136.36977"
       width="109.27644"
       height="53.283551"
       id="rect1437" /><clipPath
       clipPathUnits="userSpaceOnUse"
       id="clipPath26"><path
         d="M 0,141.732 H 141.732 V 0 H 0 Z"
         id="path24" /></clipPath><clipPath
       clipPathUnits="userSpaceOnUse"
       id="clipPath70"><path
         d="M 0,141.732 H 141.732 V 0 H 0 Z"
         id="path68" /></clipPath></defs><sodipodi:namedview
     pagecolor="#ffffff"
     bordercolor="#666666"
     borderopacity="1"
     objecttolerance="10"
     gridtolerance="10"
     guidetolerance="10"
     inkscape:pageopacity="0"
     inkscape:pageshadow="2"
     inkscape:window-width="1920"
     inkscape:window-height="1027"
     id="namedview12"
     showgrid="false"
     inkscape:zoom="6.2637414"
     inkscape:cx="97.623873"
     inkscape:cy="155.26085"
     inkscape:window-x="-8"
     inkscape:window-y="-8"
     inkscape:window-maximized="1"
     inkscape:current-layer="layer3"
     inkscape:document-rotation="0"
     inkscape:document-units="mm"
     units="mm" /><g
     inkscape:groupmode="layer"
     id="layer3"
     inkscape:label="text"><path
       d="m 78.947336,176.2862 3.478708,-6.69905 q 0.479822,-0.91351 0.775097,-1.59633 0.304503,-0.68282 0.470595,-1.19033 0.175319,-0.51673 0.239911,-0.89505 0.06459,-0.37832 0.06459,-0.68282 0,-0.47982 -0.09227,-0.80278 -0.08305,-0.33219 -0.258366,-0.52596 -0.166092,-0.203 -0.424458,-0.28605 -0.249138,-0.083 -0.581322,-0.083 -0.812007,0 -1.1811,0.67359 -0.359867,0.66437 -0.359867,1.91929 v 0.89505 h -1.845471 q -0.1015,-0.51673 -0.175319,-0.94119 -0.07382,-0.43368 -0.07382,-0.94119 0,-0.59977 0.203002,-1.19032 0.212229,-0.59978 0.655141,-1.0796 0.442913,-0.47982 1.125736,-0.7751 0.692051,-0.29527 1.651695,-0.29527 1.033462,0 1.762422,0.23991 0.738188,0.23991 1.208782,0.70127 0.470595,0.46137 0.682824,1.12574 0.221456,0.66437 0.221456,1.50406 0,0.47982 -0.09227,0.95041 -0.08305,0.46137 -0.286048,0.99656 -0.203002,0.52596 -0.525959,1.15341 -0.322957,0.62746 -0.793551,1.43947 l -3.109615,5.9055 h 4.604445 v 1.88238 h -7.344966 z"
       style="font-style:normal;font-variant:normal;font-weight:normal;font-stretch:normal;font-size:18.8976px;line-height:1.25;font-family:'Fjalla One';-inkscape-font-specification:'Fjalla One';white-space:pre;fill:#000000;fill-opacity:1.0;stroke:none"
       id="path1450" /><path
       d="m 88.128543,166.4314 q 0,-1.03346 0.184547,-1.78088 0.193774,-0.75664 0.498277,-1.26414 0.313729,-0.51674 0.719732,-0.83047 0.406004,-0.31372 0.830461,-0.47982 0.433686,-0.17532 0.858143,-0.23068 0.433686,-0.0554 0.793552,-0.0554 0.341412,0 0.756642,0.0554 0.424458,0.0461 0.848916,0.21223 0.433685,0.15686 0.830461,0.47059 0.406003,0.30451 0.710505,0.82124 0.31373,0.51673 0.498277,1.27337 0.193774,0.75664 0.193774,1.80856 v 6.66214 q 0,1.03346 -0.193774,1.79011 -0.184547,0.74741 -0.498277,1.27337 -0.313729,0.52596 -0.719733,0.85814 -0.406003,0.32296 -0.830461,0.50751 -0.424457,0.17532 -0.848915,0.23991 -0.415231,0.0646 -0.747415,0.0646 -0.369094,0 -0.802779,-0.0646 -0.433685,-0.0646 -0.86737,-0.23991 -0.433685,-0.18455 -0.839689,-0.50751 -0.396775,-0.32295 -0.701278,-0.84891 -0.304502,-0.52596 -0.489049,-1.2826 -0.184547,-0.75665 -0.184547,-1.79011 z m 2.445246,7.66792 q 0,0.9781 0.350639,1.42101 0.359867,0.44292 1.088827,0.44292 0.710505,0 1.061145,-0.44292 0.350639,-0.44291 0.350639,-1.42101 v -8.53529 q 0,-1.03346 -0.350639,-1.50406 -0.35064,-0.47059 -1.061145,-0.47059 -0.72896,0 -1.088827,0.47059 -0.350639,0.4706 -0.350639,1.50406 z"
       style="font-style:normal;font-variant:normal;font-weight:normal;font-stretch:normal;font-size:18.8976px;line-height:1.25;font-family:'Fjalla One';-inkscape-font-specification:'Fjalla One';white-space:pre;fill:#000000;fill-opacity:1.0;stroke:none"
       id="path1452" /><path
       d="m 97.76189,176.2862 3.47871,-6.69905 q 0.47982,-0.91351 0.7751,-1.59633 0.3045,-0.68282 0.47059,-1.19033 0.17532,-0.51673 0.23991,-0.89505 0.0646,-0.37832 0.0646,-0.68282 0,-0.47982 -0.0923,-0.80278 -0.0831,-0.33219 -0.25836,-0.52596 -0.1661,-0.203 -0.42446,-0.28605 -0.24914,-0.083 -0.58132,-0.083 -0.81201,0 -1.1811,0.67359 -0.359872,0.66437 -0.359872,1.91929 v 0.89505 H 98.04794 q -0.101501,-0.51673 -0.17532,-0.94119 -0.07382,-0.43368 -0.07382,-0.94119 0,-0.59977 0.203002,-1.19032 0.212229,-0.59978 0.655141,-1.0796 0.442913,-0.47982 1.125736,-0.7751 0.692051,-0.29527 1.651691,-0.29527 1.03347,0 1.76243,0.23991 0.73818,0.23991 1.20878,0.70127 0.47059,0.46137 0.68282,1.12574 0.22146,0.66437 0.22146,1.50406 0,0.47982 -0.0923,0.95041 -0.0831,0.46137 -0.28605,0.99656 -0.203,0.52596 -0.52596,1.15341 -0.32295,0.62746 -0.79355,1.43947 l -3.10961,5.9055 h 4.60444 v 1.88238 h -7.344966 z"
       style="font-style:normal;font-variant:normal;font-weight:normal;font-stretch:normal;font-size:18.8976px;line-height:1.25;font-family:'Fjalla One';-inkscape-font-specification:'Fjalla One';white-space:pre;fill:#000000;fill-opacity:1.0;stroke:none"
       id="path1454" /><path
       d="m 106.9431,166.4314 q 0,-1.03346 0.18454,-1.78088 0.19378,-0.75664 0.49828,-1.26414 0.31373,-0.51674 0.71973,-0.83047 0.40601,-0.31372 0.83046,-0.47982 0.43369,-0.17532 0.85815,-0.23068 0.43368,-0.0554 0.79355,-0.0554 0.34141,0 0.75664,0.0554 0.42446,0.0461 0.84892,0.21223 0.43368,0.15686 0.83046,0.47059 0.406,0.30451 0.7105,0.82124 0.31373,0.51673 0.49828,1.27337 0.19377,0.75664 0.19377,1.80856 v 6.66214 q 0,1.03346 -0.19377,1.79011 -0.18455,0.74741 -0.49828,1.27337 -0.31373,0.52596 -0.71973,0.85814 -0.406,0.32296 -0.83046,0.50751 -0.42446,0.17532 -0.84892,0.23991 -0.41523,0.0646 -0.74741,0.0646 -0.3691,0 -0.80278,-0.0646 -0.43369,-0.0646 -0.86737,-0.23991 -0.43369,-0.18455 -0.83969,-0.50751 -0.39678,-0.32295 -0.70128,-0.84891 -0.3045,-0.52596 -0.48905,-1.2826 -0.18454,-0.75665 -0.18454,-1.79011 z m 2.44524,7.66792 q 0,0.9781 0.35064,1.42101 0.35987,0.44292 1.08883,0.44292 0.7105,0 1.06114,-0.44292 0.35064,-0.44291 0.35064,-1.42101 v -8.53529 q 0,-1.03346 -0.35064,-1.50406 -0.35064,-0.47059 -1.06114,-0.47059 -0.72896,0 -1.08883,0.47059 -0.35064,0.4706 -0.35064,1.50406 z"
       style="font-style:normal;font-variant:normal;font-weight:normal;font-stretch:normal;font-size:18.8976px;line-height:1.25;font-family:'Fjalla One';-inkscape-font-specification:'Fjalla One';white-space:pre;fill:#000000;fill-opacity:1.0;stroke:none"
       id="path1456" /></g></svg>
