<?xml version="1.0" encoding="UTF-8" standalone="no"?>
<svg
   xmlns:dc="http://purl.org/dc/elements/1.1/"
   xmlns:cc="http://creativecommons.org/ns#"
   xmlns:rdf="http://www.w3.org/1999/02/22-rdf-syntax-ns#"
   xmlns:svg="http://www.w3.org/2000/svg"
   xmlns="http://www.w3.org/2000/svg"
   xmlns:sodipodi="http://sodipodi.sourceforge.net/DTD/sodipodi-0.dtd"
   xmlns:inkscape="http://www.inkscape.org/namespaces/inkscape"
   version="1.1"
   id="svg10"
   xml:space="preserve"
   width="50mm"
   height="50mm"
   viewBox="0 0 188.97637 188.97637"
   sodipodi:docname="corgi_ornament_silkscreen.svg"
   inkscape:version="1.0.1 (3bc2e813f5, 2020-09-07)"><metadata
     id="metadata16"><rdf:RDF><cc:Work
         rdf:about=""><dc:format>image/svg+xml</dc:format><dc:type
           rdf:resource="http://purl.org/dc/dcmitype/StillImage" /><dc:title></dc:title></cc:Work></rdf:RDF></metadata><defs
     id="defs14"><clipPath
       clipPathUnits="userSpaceOnUse"
       id="clipPath26"><path
         d="M 0,141.732 H 141.732 V 0 H 0 Z"
         id="path24" /></clipPath><clipPath
       clipPathUnits="userSpaceOnUse"
       id="clipPath70"><path
         d="M 0,141.732 H 141.732 V 0 H 0 Z"
         id="path68" /></clipPath></defs><sodipodi:namedview
     pagecolor="#ffffff"
     bordercolor="#666666"
     borderopacity="1"
     objecttolerance="10"
     gridtolerance="10"
     guidetolerance="10"
     inkscape:pageopacity="0"
     inkscape:pageshadow="2"
     inkscape:window-width="1920"
     inkscape:window-height="1027"
     id="namedview12"
     showgrid="false"
     inkscape:zoom="4.4291339"
     inkscape:cx="113.28879"
     inkscape:cy="98.237185"
     inkscape:window-x="-8"
     inkscape:window-y="-8"
     inkscape:window-maximized="1"
     inkscape:current-layer="layer2"
     inkscape:document-rotation="0"
     inkscape:document-units="mm"
     units="mm" /><g
     inkscape:groupmode="layer"
     id="layer2"
     inkscape:label="silkscreen"
     style="display:inline"><path
       d="m 85.2959,37.8544 c -2.609,2.755 -8.663,5.995 -14.972,5.101 -3.499,-0.497 -9.56,-3.383 -10.427,-5.137 0.21,0.102 0.377,0.184 0.545,0.266 2.212,1.078 4.49,1.981 6.886,2.568 2.33,0.571 4.685,0.872 7.085,0.617 2.932,-0.311 5.728,-1.126 8.424,-2.299 0.825,-0.358 1.64,-0.743 2.459,-1.116 m -11.897,-9.105 c 0.049,0.079 0.054,0.096 0.065,0.102 0.064,0.032 0.131,0.063 0.197,0.092 2.077,0.923 3.785,2.313 5.149,4.122 0.495,0.657 0.898,1.377 0.913,2.238 0.044,2.507 -2.699,4.743 -5.179,4.17 -0.692,-0.16 -1.335,-0.537 -2.043,-0.832 -1.832,1.37 -4.071,0.964 -5.562,-0.391 -1.491,-1.355 -2.044,-3.067 -0.648,-5.034 0.805,-1.133 1.779,-2.102 2.913,-2.892 0.819,-0.571 1.698,-1.055 2.592,-1.602 -1.703,-2.554 -4.215,-3.728 -7.213,-3.467 -3.872,0.339 -5.818,2.962 -6.8,6.53 -0.009,-0.141 -0.021,-0.236 -0.02,-0.331 0.025,-2.85 1.238,-5.115 3.581,-6.669 2.756,-1.828 5.695,-1.658 8.618,-0.372 0.677,0.298 1.918,1.175 1.918,1.175 l 1.455,0.08 c 0,0 3.352,-2 5.385,-2.157 3.841,-0.296 7.204,1.873 8.379,5.54 0.321,1.003 0.435,2.033 0.304,2.64 -0.939,-3.42 -2.844,-6.017 -6.621,-6.419 -3.049,-0.324 -5.609,0.849 -7.383,3.477 m -0.28,59.379 c 2.506,0.006 5.26,-0.227 7.736,-0.621 0.39,-0.062 0.453,-0.206 0.343,-0.544 -0.401,-1.236 -1.49,-3.358 -1.934,-4.578 -0.965,-2.648 -1.256,-5.385 -1.289,-8.184 -0.05,-4.227 -0.196,-8.452 -0.28,-12.68 -0.062,-3.203 -0.086,-6.407 -0.141,-9.61 -0.05,-2.931 1.207,-5.259 3.243,-7.264 1.756,-1.729 3.768,-3.087 5.935,-4.222 0.42,-0.22 0.948,-0.266 1.435,-0.325 2.902,-0.351 5.776,-0.868 8.603,-1.611 3.118,-0.821 6.16,-1.858 8.809,-3.772 1.746,-1.261 3.077,-2.829 3.371,-5.07 0.163,-1.238 -0.105,-2.421 -0.524,-3.567 -0.698,-1.911 -1.78,-3.602 -3.044,-5.184 -2.18,-2.726 -4.767,-5.004 -7.607,-7.016 -3.277,-2.321 -6.812,-4.144 -10.576,-5.529 -3.067,-1.129 -6.222,-1.901 -9.468,-2.314 -2.928,-0.374 -5.861,-0.446 -8.798,-0.167 -3.388,0.321 -6.694,1.031 -9.919,2.127 -3.7,1.256 -7.191,2.95 -10.448,5.101 -3.347,2.21 -6.378,4.79 -8.863,7.964 -1.332,1.701 -2.462,3.522 -3.113,5.604 -0.871,2.791 -0.176,5.158 1.943,7.132 1.936,1.804 4.293,2.858 6.745,3.722 3.041,1.072 6.18,1.754 9.368,2.22 1.069,0.156 2.153,0.24 3.206,0.468 0.566,0.124 1.105,0.442 1.615,0.742 2.138,1.256 4.154,2.673 5.78,4.574 1.556,1.818 2.45,3.891 2.415,6.325 -0.043,2.985 -0.045,5.971 -0.1,8.956 -0.067,3.599 -0.167,7.196 -0.26,10.795 -0.048,1.872 -0.015,3.753 -0.198,5.611 -0.14,1.429 -0.497,2.847 -0.872,4.238 -0.425,1.576 -0.974,3.118 -1.477,4.673 -0.105,0.328 -0.034,0.456 0.331,0.515 2.359,0.867 5.497,1.502 8.033,1.491"
       style="fill:#ff0000;fill-opacity:1;fill-rule:nonzero;stroke:none"
       id="path34"
       transform="matrix(1.3333333,0,0,-1.3333333,0,188.976)" /><g
       id="g36"
       transform="matrix(1.3333333,0,0,-1.3333333,50.533199,94.612936)"
       style="fill:#ff0000;fill-opacity:1;stroke:none"><path
         d="m 0,0 c -0.04,-0.05 -0.06,-0.08 -0.07,-0.09 -0.78,-1.13 -1.58,-2.27 -2.29,-3.45 -1.97,-3.27 -3.35,-6.79 -4.05,-10.54 -0.34,-1.85 -0.44,-3.74 -0.65,-5.61 -0.02,-0.2 -0.02,-0.39 -0.03,-0.59 -0.03,-0.01 -0.07,-0.03 -0.11,-0.04 -0.56,0.62 -1.14,1.23 -1.69,1.86 -4.89,5.61 -8.43,12.02 -11.11,18.93 -1.72,4.42 -3.04,8.96 -3.9,13.63 -0.75,4.1 -1.17,8.22 -0.84,12.39 0.23,2.84 0.83,5.57 2.21,8.11 0.53,0.98 1.29,1.3 2.3,1.37 1.82,0.12 3.55,-0.24 5.25,-0.84 2.87,-1.02 5.46,-2.58 7.92,-4.36 2.65,-1.91 5.09,-4.03 7.37,-6.33 C -1.65,21.86 -4.04,19.56 -7.08,17.66 -10.21,15.7 -10.55,13.55 -9.28,10 -7.6,5.31 -4.39,2.11 0,0"
         style="fill:#ff0000;fill-opacity:1;fill-rule:nonzero;stroke:none"
         id="path38" /></g><g
       id="g40"
       transform="matrix(1.3333333,0,0,-1.3333333,175.98693,68.02627)"
       style="fill:#ff0000;fill-opacity:1;stroke:none"><path
         d="m 0,0 c -1.061,-11.07 -4.57,-21.33 -10.271,-30.86 -1.919,-3.22 -4.209,-6.18 -6.769,-8.93 -0.13,-0.14 -0.271,-0.28 -0.4,-0.41 -0.02,-0.02 -0.06,-0.01 -0.14,-0.02 -0.061,0.89 -0.11,1.77 -0.17,2.64 -0.181,2.34 -0.66,4.63 -1.351,6.87 -0.929,3.05 -2.299,5.9 -4.029,8.58 -0.08,0.13 -0.5,0.63 -1.13,1.37 0.72,0.62 1.329,1.74 1.909,3.36 1.871,5.17 2.42,10.56 1.5,15.84 -0.439,2.52 -1.489,5.02 -2.759,7.35 V 5.8 c 0.44,0.43 0.889,0.85 1.339,1.27 2.031,1.89 4.231,3.59 6.581,5.08 2.25,1.44 4.589,2.69 7.169,3.42 1.741,0.49 3.511,0.68 5.291,0.25 0.209,-0.05 0.43,-0.24 0.56,-0.43 1.239,-1.73 1.899,-3.71 2.31,-5.78 C 0.27,6.43 0.31,3.21 0,0"
         style="fill:#ff0000;fill-opacity:1;fill-rule:nonzero;stroke:none"
         id="path42" /></g><g
       id="g44"
       transform="matrix(1.3333333,0,0,-1.3333333,60.726532,20.960538)"
       style="fill:#ff0000;fill-opacity:1;stroke:none"><path
         d="m 0,0 c 0,-5.148 -4.173,-9.321 -9.321,-9.321 -5.148,0 -9.321,4.173 -9.321,9.321 0,5.148 4.173,9.321 9.321,9.321 C -4.173,9.321 0,5.148 0,0"
         style="fill:#ff0000;fill-opacity:1;fill-rule:nonzero;stroke:none"
         id="path46" /></g><g
       id="g48"
       transform="matrix(1.3333333,0,0,-1.3333333,52.647732,64.571203)"
       style="fill:#ff0000;fill-opacity:1;stroke:none"><path
         d="m 0,0 c 0,0 15.487,10.095 25.812,11.816 10.325,1.721 15.029,1.951 22.257,0 7.227,-1.95 13.881,-5.965 13.881,-5.965 0,0 -1.492,6.883 -6.195,11.128 -4.704,4.245 -19.847,14.914 -19.618,12.619 0.23,-2.294 1.95,-4.703 1.491,-5.85 C 37.169,22.6 25.583,26.73 26.5,24.78 27.264,23.158 33.499,20.42 30.975,19.273 28.451,18.126 21.797,14.643 16.635,12.161 11.472,9.678 0,0 0,0"
         style="fill:#ff0000;fill-opacity:1;fill-rule:nonzero;stroke:none"
         id="path50" /></g><path
       d="m 38.2373,73.6346 c -1.568,1.335 -2.904,2.417 -4.179,3.567 -5.053,4.559 -5.022,7.35 0.314,11.46 9.511,7.324 20.254,12.14 31.822,15.187 8.922,2.35 17.073,2.59 25.699,-1.043 4.484,-1.887 13.71,-6.959 15.776,-10.86 1.694,-3.201 1.467,-10.219 0.773,-13.777 -0.555,-2.839 -1.455,-3.195 -3.949,-1.533 -2.605,1.737 -4.937,3.879 -7.493,5.679 -9.403,6.622 -17.842,7.295 -25.43,6.878 -7.649,-0.421 -15.761,-3.677 -24.627,-10.229 -2.588,-1.913 -5.823,-3.521 -8.706,-5.329"
       style="fill:#ff0000;fill-opacity:1;fill-rule:nonzero;stroke:none"
       id="path54"
       transform="matrix(1.3333333,0,0,-1.3333333,0,188.976)" /><g
       id="g56"
       transform="matrix(1.3333333,0,0,-1.3333333,131.78253,122.1168)"
       style="fill:#ff0000;fill-opacity:1;stroke:none"><path
         d="m 0,0 c 0,-3.834 -3.108,-6.942 -6.943,-6.942 -3.834,0 -6.943,3.108 -6.943,6.942 0,3.835 3.109,6.943 6.943,6.943 C -3.108,6.943 0,3.835 0,0"
         style="fill:#ff0000;fill-opacity:1;fill-rule:nonzero;stroke:none"
         id="path58" /></g><g
       id="g60"
       transform="matrix(1.3333333,0,0,-1.3333333,79.402931,122.1168)"
       style="fill:#ff0000;fill-opacity:1;stroke:none"><path
         d="m 0,0 c 0,-3.834 -3.108,-6.942 -6.943,-6.942 -3.834,0 -6.942,3.108 -6.942,6.942 0,3.835 3.108,6.943 6.942,6.943 C -3.108,6.943 0,3.835 0,0"
         style="fill:#ff0000;fill-opacity:1;fill-rule:nonzero;stroke:none"
         id="path62" /></g><g
       id="g72"
       transform="matrix(1.3333333,0,0,-1.3333333,123.83333,160.67667)"
       style="fill:#ff0000;fill-opacity:1;stroke:none"><path
         d="m 0,0 c 0,-10.688 -9.278,-19.354 -20.725,-19.354 -11.446,0 -20.725,8.666 -20.725,19.354 0,10.688 8.733,5.419 20.179,5.419 C -9.825,5.419 0,10.688 0,0"
         style="fill:#ff0000;fill-opacity:1;fill-rule:nonzero;stroke:none"
         id="path74" /></g><g
       id="g76"
       transform="matrix(1.3333333,0,0,-1.3333333,72.930398,157.30307)"
       style="fill:#ff0000;fill-opacity:1;stroke:none"><path
         d="m 0,0 c -12.812,2.908 -28.523,17.436 -29.186,18.053 l 2.045,2.195 C -26.984,20.103 -11.356,5.653 0.664,2.926 Z"
         style="fill:#ff0000;fill-opacity:1;fill-rule:nonzero;stroke:none"
         id="path78" /></g><g
       id="g80"
       transform="matrix(1.3333333,0,0,-1.3333333,74.323598,173.51787)"
       style="fill:#ff0000;fill-opacity:1;stroke:none"><path
         d="m 0,0 c -12.327,0 -35.079,11.156 -36.041,11.632 l 1.327,2.689 C -34.484,14.209 -11.629,3 0,3 Z"
         style="fill:#ff0000;fill-opacity:1;fill-rule:nonzero;stroke:none"
         id="path82" /></g><g
       id="g84"
       transform="matrix(1.3333333,0,0,-1.3333333,118.70706,158.1416)"
       style="fill:#ff0000;fill-opacity:1;stroke:none"><path
         d="m 0,0 -0.812,2.889 c 20.202,5.683 30.798,16.3 30.903,16.407 l 2.143,-2.099 C 31.786,16.739 21.025,5.916 0,0"
         style="fill:#ff0000;fill-opacity:1;fill-rule:nonzero;stroke:none"
         id="path86" /></g><g
       id="g88"
       transform="matrix(1.3333333,0,0,-1.3333333,119.54813,172.52173)"
       style="fill:#ff0000;fill-opacity:1;stroke:none"><path
         d="m 0,0 -0.49,2.959 c 24.5,4.053 34.737,10.47 34.838,10.534 l 1.617,-2.527 C 35.533,10.689 25.103,4.151 0,0"
         style="fill:#ff0000;fill-opacity:1;fill-rule:nonzero;stroke:none"
         id="path90" /></g></g></svg>
