<?xml version="1.0" encoding="UTF-8" standalone="no"?>
<svg
   xmlns:dc="http://purl.org/dc/elements/1.1/"
   xmlns:cc="http://creativecommons.org/ns#"
   xmlns:rdf="http://www.w3.org/1999/02/22-rdf-syntax-ns#"
   xmlns:svg="http://www.w3.org/2000/svg"
   xmlns="http://www.w3.org/2000/svg"
   xmlns:sodipodi="http://sodipodi.sourceforge.net/DTD/sodipodi-0.dtd"
   xmlns:inkscape="http://www.inkscape.org/namespaces/inkscape"
   version="1.1"
   id="svg10"
   xml:space="preserve"
   width="50mm"
   height="50mm"
   viewBox="0 0 188.97637 188.97637"
   sodipodi:docname="corgi_ornament_silkscreen1.svg"
   inkscape:version="1.0.1 (3bc2e813f5, 2020-09-07)"><metadata
     id="metadata16"><rdf:RDF><cc:Work
         rdf:about=""><dc:format>image/svg+xml</dc:format><dc:type
           rdf:resource="http://purl.org/dc/dcmitype/StillImage" /><dc:title></dc:title></cc:Work></rdf:RDF></metadata><defs
     id="defs14"><clipPath
       clipPathUnits="userSpaceOnUse"
       id="clipPath26"><path
         d="M 0,141.732 H 141.732 V 0 H 0 Z"
         id="path24" /></clipPath><clipPath
       clipPathUnits="userSpaceOnUse"
       id="clipPath70"><path
         d="M 0,141.732 H 141.732 V 0 H 0 Z"
         id="path68" /></clipPath></defs><sodipodi:namedview
     pagecolor="#ffffff"
     bordercolor="#666666"
     borderopacity="1"
     objecttolerance="10"
     gridtolerance="10"
     guidetolerance="10"
     inkscape:pageopacity="0"
     inkscape:pageshadow="2"
     inkscape:window-width="1920"
     inkscape:window-height="1027"
     id="namedview12"
     showgrid="false"
     inkscape:zoom="3.1318706"
     inkscape:cx="248.90536"
     inkscape:cy="86.094367"
     inkscape:window-x="-8"
     inkscape:window-y="-8"
     inkscape:window-maximized="1"
     inkscape:current-layer="layer2"
     inkscape:document-rotation="0"
     inkscape:document-units="mm"
     units="mm" /><g
     inkscape:groupmode="layer"
     id="layer2"
     inkscape:label="silkscreen"
     style="display:inline"><path
       id="path883"
       style="fill:#ff0000;fill-opacity:1;fill-rule:nonzero;stroke:none;stroke-width:1.33333"
       d="m 97.492188,71.470703 c -3.381338,-0.01467 -7.565605,0.832281 -10.710938,1.988281 -0.486667,0.07867 -0.581406,0.250167 -0.441406,0.6875 0.670666,2.073334 1.402083,4.129136 1.96875,6.230469 0.5,1.854667 0.977396,3.745057 1.164062,5.650391 0.244,2.477333 0.199672,4.986422 0.263672,7.482422 0.124,4.798666 0.25637,9.593914 0.345703,14.392574 0.07333,3.98 0.07743,7.96141 0.134766,11.94141 0.04667,3.24533 -1.146037,6.00959 -3.220703,8.43359 -2.168,2.53467 -4.856361,4.42299 -7.707032,6.09766 -0.68,0.4 -1.397677,0.8249 -2.152343,0.99023 -1.404,0.304 -2.850058,0.41505 -4.275391,0.62305 -4.250667,0.62133 -8.435567,1.53161 -12.490234,2.96094 -3.269334,1.152 -6.412807,2.55756 -8.994141,4.96289 -2.825333,2.632 -3.751177,5.78648 -2.589844,9.50781 0.868,2.776 2.374391,5.20466 4.150391,7.47266 3.313333,4.232 7.353739,7.67247 11.816406,10.61914 4.342667,2.868 8.998307,5.12611 13.931641,6.80078 4.3,1.46133 8.707276,2.40794 13.224609,2.83594 3.916,0.372 7.826489,0.27601 11.730464,-0.22266 4.32805,-0.55067 8.53567,-1.5806 12.625,-3.08594 5.01871,-1.84666 9.73223,-4.27642 14.10157,-7.37109 3.78666,-2.68267 7.23591,-5.7208 10.14258,-9.35547 1.68533,-2.10933 3.12792,-4.36411 4.05859,-6.91211 0.55867,-1.528 0.91464,-3.10519 0.69726,-4.75586 -0.392,-2.988 -2.16614,-5.07843 -4.49414,-6.75976 -3.532,-2.552 -7.5868,-3.93463 -11.74414,-5.0293 -3.76933,-0.99067 -7.60137,-1.67848 -11.4707,-2.14648 -0.64933,-0.0787 -1.35406,-0.14026 -1.91406,-0.4336 -2.18412,-1.14396 -5.00724,-3.11757 -6.89649,-4.6875 l -2.51171,3.16406 c 2.78725,1.31732 6.02541,3.40027 7.49414,4.95118 -1.092,-0.49734 -2.1793,-1.01091 -3.2793,-1.48829 -1.44336,-0.62798 -3.93987,-1.47336 -5.42969,-1.93359 l -1.61523,2.03125 c 1.25371,1.06407 2.92099,3.17196 2.89258,4.79102 -0.02,1.148 -0.5568,2.10837 -1.2168,2.98437 -1.81867,2.412 -4.0959,4.26543 -6.865236,5.4961 -0.088,0.0387 -0.178339,0.0804 -0.263672,0.12304 -0.01467,0.008 -0.0206,0.0294 -0.08594,0.13477 2.365336,3.504 5.778416,5.06872 9.843746,4.63672 5.036,-0.536 7.57613,-3.9986 8.82813,-8.5586 0.17467,0.80934 0.0237,2.1822 -0.4043,3.51953 -1.56666,4.88934 -6.05249,7.78139 -11.17383,7.38672 -2.71066,-0.20933 -7.179683,-2.875 -7.179683,-2.875 l -1.939453,0.10547 c 0,0 -1.653974,1.17103 -2.556641,1.56836 -3.897333,1.71467 -7.817521,1.94124 -11.492187,-0.49609 -3.124003,-2.072 -4.740105,-5.09258 -4.773438,-8.89258 -0.0013,-0.12667 0.01339,-0.25341 0.02539,-0.44141 1.309333,4.75734 3.905692,8.25503 9.068359,8.70703 3.997334,0.348 7.346521,-1.21771 9.617188,-4.62304 -1.192,-0.72934 -2.365032,-1.37539 -3.457032,-2.13672 -1.512,-1.05333 -2.809479,-2.3448 -3.882812,-3.85547 -1.861334,-2.62267 -1.124719,-4.90622 0.863281,-6.71289 1.988,-1.80667 4.973349,-2.3462 7.416016,-0.51953 0.944,-0.39334 1.801942,-0.89604 2.724609,-1.10938 0.413333,-0.0955 0.831702,-0.13407 1.248042,-0.11914 0.95353,0.0342 1.8835,0.35693 2.71485,0.85742 0.0163,0.01 0.0325,0.0197 0.0488,0.0293 l 1.61523,-2.03125 c -0.12184,-0.0321 -0.24352,-0.0648 -0.36523,-0.0977 -1.77595,-0.47886 -3.58498,-0.83867 -5.437503,-1.03516 -3.2,-0.34 -6.338642,0.0629 -9.445313,0.82422 -3.194666,0.78266 -6.232307,1.98649 -9.18164,3.42383 -0.224,0.10933 -0.446563,0.21751 -0.726563,0.35351 1.156,-2.33867 9.237011,-6.18694 13.902344,-6.84961 1.0515,-0.149 2.096339,-0.21044 3.128906,-0.19922 3.355089,0.0364 6.557599,0.86219 9.339849,2.05078 l 2.51171,-3.16406 c -0.34432,-0.30646 -0.68666,-0.61754 -1.01757,-0.94336 -2.71467,-2.67333 -4.39089,-5.77559 -4.32422,-9.68359 0.0733,-4.27067 0.10678,-8.54379 0.18945,-12.81445 0.112,-5.63734 0.30638,-11.270254 0.37305,-16.906254 0.044,-3.732004 0.43208,-7.381443 1.71875,-10.91211 0.592,-1.626666 2.04346,-4.455515 2.57812,-6.103515 0.14667,-0.450667 0.063,-0.643896 -0.45703,-0.726563 -3.30133,-0.525333 -6.97312,-0.836125 -10.314452,-0.828125 z"
       sodipodi:nodetypes="ccccccccccccccccccccccccccccccccccccccccccccccccccccccsccssccccccccscccccccccc" /><g
       id="g36"
       transform="matrix(1.3333333,0,0,-1.3333333,50.533199,94.612936)"
       style="fill:#ff0000;fill-opacity:1;stroke:none"><path
         d="m 0,0 c -0.04,-0.05 -0.06,-0.08 -0.07,-0.09 -0.78,-1.13 -1.58,-2.27 -2.29,-3.45 -1.97,-3.27 -3.35,-6.79 -4.05,-10.54 -0.34,-1.85 -0.44,-3.74 -0.65,-5.61 -0.02,-0.2 -0.02,-0.39 -0.03,-0.59 -0.03,-0.01 -0.07,-0.03 -0.11,-0.04 -0.56,0.62 -1.14,1.23 -1.69,1.86 -4.89,5.61 -8.43,12.02 -11.11,18.93 -1.72,4.42 -3.04,8.96 -3.9,13.63 -0.75,4.1 -1.17,8.22 -0.84,12.39 0.23,2.84 0.83,5.57 2.21,8.11 0.53,0.98 1.29,1.3 2.3,1.37 1.82,0.12 3.55,-0.24 5.25,-0.84 2.87,-1.02 5.46,-2.58 7.92,-4.36 2.65,-1.91 5.09,-4.03 7.37,-6.33 C -1.65,21.86 -4.04,19.56 -7.08,17.66 -10.21,15.7 -10.55,13.55 -9.28,10 -7.6,5.31 -4.39,2.11 0,0"
         style="fill:#ff0000;fill-opacity:1;fill-rule:nonzero;stroke:none"
         id="path38" /></g><g
       id="g40"
       transform="matrix(1.3333333,0,0,-1.3333333,175.98693,68.02627)"
       style="fill:#ff0000;fill-opacity:1;stroke:none"><path
         d="m 0,0 c -1.061,-11.07 -4.57,-21.33 -10.271,-30.86 -1.919,-3.22 -4.209,-6.18 -6.769,-8.93 -0.13,-0.14 -0.271,-0.28 -0.4,-0.41 -0.02,-0.02 -0.06,-0.01 -0.14,-0.02 -0.061,0.89 -0.11,1.77 -0.17,2.64 -0.181,2.34 -0.66,4.63 -1.351,6.87 -0.929,3.05 -2.299,5.9 -4.029,8.58 -0.08,0.13 -0.5,0.63 -1.13,1.37 0.72,0.62 1.329,1.74 1.909,3.36 1.871,5.17 2.42,10.56 1.5,15.84 -0.439,2.52 -1.489,5.02 -2.759,7.35 V 5.8 c 0.44,0.43 0.889,0.85 1.339,1.27 2.031,1.89 4.231,3.59 6.581,5.08 2.25,1.44 4.589,2.69 7.169,3.42 1.741,0.49 3.511,0.68 5.291,0.25 0.209,-0.05 0.43,-0.24 0.56,-0.43 1.239,-1.73 1.899,-3.71 2.31,-5.78 C 0.27,6.43 0.31,3.21 0,0"
         style="fill:#ff0000;fill-opacity:1;fill-rule:nonzero;stroke:none"
         id="path42" /></g><g
       id="g44"
       transform="matrix(1.3333333,0,0,-1.3333333,60.726532,20.960538)"
       style="fill:#ff0000;fill-opacity:1;stroke:none"><path
         d="m 0,0 c 0,-5.148 -4.173,-9.321 -9.321,-9.321 -5.148,0 -9.321,4.173 -9.321,9.321 0,5.148 4.173,9.321 9.321,9.321 C -4.173,9.321 0,5.148 0,0"
         style="fill:#ff0000;fill-opacity:1;fill-rule:nonzero;stroke:none"
         id="path46" /></g><g
       id="g48"
       transform="matrix(1.3333333,0,0,-1.3333333,52.647732,64.571203)"
       style="fill:#ff0000;fill-opacity:1;stroke:none"><path
         d="m 0,0 c 0,0 15.487,10.095 25.812,11.816 10.325,1.721 15.029,1.951 22.257,0 7.227,-1.95 13.881,-5.965 13.881,-5.965 0,0 -1.492,6.883 -6.195,11.128 -4.704,4.245 -19.847,14.914 -19.618,12.619 0.23,-2.294 1.95,-4.703 1.491,-5.85 C 37.169,22.6 25.583,26.73 26.5,24.78 27.264,23.158 33.499,20.42 30.975,19.273 28.451,18.126 21.797,14.643 16.635,12.161 11.472,9.678 0,0 0,0"
         style="fill:#ff0000;fill-opacity:1;fill-rule:nonzero;stroke:none"
         id="path50" /></g><path
       d="m 38.2373,73.6346 c -1.568,1.335 -2.904,2.417 -4.179,3.567 -5.053,4.559 -5.022,7.35 0.314,11.46 9.511,7.324 20.254,12.14 31.822,15.187 8.922,2.35 17.073,2.59 25.699,-1.043 4.484,-1.887 13.71,-6.959 15.776,-10.86 1.694,-3.201 1.467,-10.219 0.773,-13.777 -0.555,-2.839 -1.455,-3.195 -3.949,-1.533 -2.605,1.737 -4.937,3.879 -7.493,5.679 -9.403,6.622 -17.842,7.295 -25.43,6.878 -7.649,-0.421 -15.761,-3.677 -24.627,-10.229 -2.588,-1.913 -5.823,-3.521 -8.706,-5.329"
       style="fill:#ff0000;fill-opacity:1;fill-rule:nonzero;stroke:none"
       id="path54"
       transform="matrix(1.3333333,0,0,-1.3333333,0,188.976)" /><g
       id="g56"
       transform="matrix(1.3333333,0,0,-1.3333333,131.78253,122.1168)"
       style="fill:#ff0000;fill-opacity:1;stroke:none"><path
         d="m 0,0 c 0,-3.834 -3.108,-6.942 -6.943,-6.942 -3.834,0 -6.943,3.108 -6.943,6.942 0,3.835 3.109,6.943 6.943,6.943 C -3.108,6.943 0,3.835 0,0"
         style="fill:#ff0000;fill-opacity:1;fill-rule:nonzero;stroke:none"
         id="path58" /></g><g
       id="g60"
       transform="matrix(1.3333333,0,0,-1.3333333,79.402931,122.1168)"
       style="fill:#ff0000;fill-opacity:1;stroke:none"><path
         d="m 0,0 c 0,-3.834 -3.108,-6.942 -6.943,-6.942 -3.834,0 -6.942,3.108 -6.942,6.942 0,3.835 3.108,6.943 6.942,6.943 C -3.108,6.943 0,3.835 0,0"
         style="fill:#ff0000;fill-opacity:1;fill-rule:nonzero;stroke:none"
         id="path62" /></g><g
       id="g76"
       transform="matrix(1.3333333,0,0,-1.3333333,72.930398,157.30307)"
       style="fill:#ff0000;fill-opacity:1;stroke:none"><path
         d="m 0,0 c -12.812,2.908 -28.523,17.436 -29.186,18.053 l 2.045,2.195 C -26.984,20.103 -11.356,5.653 0.664,2.926 Z"
         style="fill:#ff0000;fill-opacity:1;fill-rule:nonzero;stroke:none"
         id="path78" /></g><g
       id="g80"
       transform="matrix(1.3333333,0,0,-1.3333333,74.323598,173.51787)"
       style="fill:#ff0000;fill-opacity:1;stroke:none"><path
         d="m 0,0 c -12.327,0 -35.079,11.156 -36.041,11.632 l 1.327,2.689 C -34.484,14.209 -11.629,3 0,3 Z"
         style="fill:#ff0000;fill-opacity:1;fill-rule:nonzero;stroke:none"
         id="path82" /></g><g
       id="g84"
       transform="matrix(1.3333333,0,0,-1.3333333,118.70706,158.1416)"
       style="fill:#ff0000;fill-opacity:1;stroke:none"><path
         d="m 0,0 -0.812,2.889 c 20.202,5.683 30.798,16.3 30.903,16.407 l 2.143,-2.099 C 31.786,16.739 21.025,5.916 0,0"
         style="fill:#ff0000;fill-opacity:1;fill-rule:nonzero;stroke:none"
         id="path86" /></g><g
       id="g88"
       transform="matrix(1.3333333,0,0,-1.3333333,119.54813,172.52173)"
       style="fill:#ff0000;fill-opacity:1;stroke:none"><path
         d="m 0,0 -0.49,2.959 c 24.5,4.053 34.737,10.47 34.838,10.534 l 1.617,-2.527 C 35.533,10.689 25.103,4.151 0,0"
         style="fill:#ff0000;fill-opacity:1;fill-rule:nonzero;stroke:none"
         id="path90" /></g></g></svg>
