<?xml version="1.0" encoding="UTF-8" standalone="no"?>
<svg
   xmlns:dc="http://purl.org/dc/elements/1.1/"
   xmlns:cc="http://creativecommons.org/ns#"
   xmlns:rdf="http://www.w3.org/1999/02/22-rdf-syntax-ns#"
   xmlns:svg="http://www.w3.org/2000/svg"
   xmlns="http://www.w3.org/2000/svg"
   xmlns:sodipodi="http://sodipodi.sourceforge.net/DTD/sodipodi-0.dtd"
   xmlns:inkscape="http://www.inkscape.org/namespaces/inkscape"
   version="1.1"
   id="svg10"
   xml:space="preserve"
   width="50mm"
   height="50mm"
   viewBox="0 0 188.97637 188.97637"
   sodipodi:docname="corgi_ornament_mask.svg"
   inkscape:version="1.0.1 (3bc2e813f5, 2020-09-07)"><metadata
     id="metadata16"><rdf:RDF><cc:Work
         rdf:about=""><dc:format>image/svg+xml</dc:format><dc:type
           rdf:resource="http://purl.org/dc/dcmitype/StillImage" /><dc:title></dc:title></cc:Work></rdf:RDF></metadata><defs
     id="defs14"><clipPath
       clipPathUnits="userSpaceOnUse"
       id="clipPath26"><path
         d="M 0,141.732 H 141.732 V 0 H 0 Z"
         id="path24" /></clipPath><clipPath
       clipPathUnits="userSpaceOnUse"
       id="clipPath70"><path
         d="M 0,141.732 H 141.732 V 0 H 0 Z"
         id="path68" /></clipPath></defs><sodipodi:namedview
     pagecolor="#ffffff"
     bordercolor="#666666"
     borderopacity="1"
     objecttolerance="10"
     gridtolerance="10"
     guidetolerance="10"
     inkscape:pageopacity="0"
     inkscape:pageshadow="2"
     inkscape:window-width="1920"
     inkscape:window-height="1027"
     id="namedview12"
     showgrid="false"
     inkscape:zoom="2.214567"
     inkscape:cx="82.152326"
     inkscape:cy="93.842504"
     inkscape:window-x="-8"
     inkscape:window-y="-8"
     inkscape:window-maximized="1"
     inkscape:current-layer="layer2"
     inkscape:document-rotation="0"
     inkscape:document-units="mm"
     units="mm" /><g
     inkscape:groupmode="layer"
     id="layer2"
     inkscape:label="silkscreen"
     style="display:inline"><g
       id="g72"
       transform="matrix(1.3333333,0,0,-1.3333333,123.83333,160.67667)"
       style="fill:#ff0000;fill-opacity:1;stroke:none"><path
         d="m 0,0 c 0,-10.688 -9.278,-19.354 -20.725,-19.354 -11.446,0 -20.725,8.666 -20.725,19.354 0,10.688 8.733,5.419 20.179,5.419 C -9.825,5.419 0,10.688 0,0"
         style="fill:#ff0000;fill-opacity:1;fill-rule:nonzero;stroke:none"
         id="path74" /></g><g
       id="g76"
       transform="matrix(1.3333333,0,0,-1.3333333,72.930398,157.30307)"
       style="fill:#ff0000;fill-opacity:1;stroke:none"><path
         d="m 0,0 c -12.812,2.908 -28.523,17.436 -29.186,18.053 l 2.045,2.195 C -26.984,20.103 -11.356,5.653 0.664,2.926 Z"
         style="fill:#ff0000;fill-opacity:1;fill-rule:nonzero;stroke:none"
         id="path78" /></g><g
       id="g80"
       transform="matrix(1.3333333,0,0,-1.3333333,74.323598,173.51787)"
       style="fill:#ff0000;fill-opacity:1;stroke:none"><path
         d="m 0,0 c -12.327,0 -35.079,11.156 -36.041,11.632 l 1.327,2.689 C -34.484,14.209 -11.629,3 0,3 Z"
         style="fill:#ff0000;fill-opacity:1;fill-rule:nonzero;stroke:none"
         id="path82" /></g><g
       id="g84"
       transform="matrix(1.3333333,0,0,-1.3333333,118.70706,158.1416)"
       style="fill:#ff0000;fill-opacity:1;stroke:none"><path
         d="m 0,0 -0.812,2.889 c 20.202,5.683 30.798,16.3 30.903,16.407 l 2.143,-2.099 C 31.786,16.739 21.025,5.916 0,0"
         style="fill:#ff0000;fill-opacity:1;fill-rule:nonzero;stroke:none"
         id="path86" /></g><g
       id="g88"
       transform="matrix(1.3333333,0,0,-1.3333333,119.54813,172.52173)"
       style="fill:#ff0000;fill-opacity:1;stroke:none"><path
         d="m 0,0 -0.49,2.959 c 24.5,4.053 34.737,10.47 34.838,10.534 l 1.617,-2.527 C 35.533,10.689 25.103,4.151 0,0"
         style="fill:#ff0000;fill-opacity:1;fill-rule:nonzero;stroke:none"
         id="path90" /></g></g></svg>
