<?xml version="1.0" encoding="UTF-8" standalone="no"?>
<svg
   xmlns:dc="http://purl.org/dc/elements/1.1/"
   xmlns:cc="http://creativecommons.org/ns#"
   xmlns:rdf="http://www.w3.org/1999/02/22-rdf-syntax-ns#"
   xmlns:svg="http://www.w3.org/2000/svg"
   xmlns="http://www.w3.org/2000/svg"
   xmlns:sodipodi="http://sodipodi.sourceforge.net/DTD/sodipodi-0.dtd"
   xmlns:inkscape="http://www.inkscape.org/namespaces/inkscape"
   version="1.1"
   id="svg10"
   xml:space="preserve"
   width="50mm"
   height="50mm"
   viewBox="0 0 188.97637 188.97637"
   sodipodi:docname="corgi_ornament_outline.svg"
   inkscape:version="1.0.1 (3bc2e813f5, 2020-09-07)"><metadata
     id="metadata16"><rdf:RDF><cc:Work
         rdf:about=""><dc:format>image/svg+xml</dc:format><dc:type
           rdf:resource="http://purl.org/dc/dcmitype/StillImage" /><dc:title /></cc:Work></rdf:RDF></metadata><defs
     id="defs14"><clipPath
       clipPathUnits="userSpaceOnUse"
       id="clipPath26"><path
         d="M 0,141.732 H 141.732 V 0 H 0 Z"
         id="path24" /></clipPath><clipPath
       clipPathUnits="userSpaceOnUse"
       id="clipPath70"><path
         d="M 0,141.732 H 141.732 V 0 H 0 Z"
         id="path68" /></clipPath></defs><sodipodi:namedview
     pagecolor="#ffffff"
     bordercolor="#666666"
     borderopacity="1"
     objecttolerance="10"
     gridtolerance="10"
     guidetolerance="10"
     inkscape:pageopacity="0"
     inkscape:pageshadow="2"
     inkscape:window-width="1920"
     inkscape:window-height="1027"
     id="namedview12"
     showgrid="false"
     inkscape:zoom="3.1318706"
     inkscape:cx="226.45387"
     inkscape:cy="169.5337"
     inkscape:window-x="-8"
     inkscape:window-y="-8"
     inkscape:window-maximized="1"
     inkscape:current-layer="layer1"
     inkscape:document-rotation="0"
     inkscape:document-units="mm"
     units="mm" /><g
     inkscape:groupmode="layer"
     id="layer1"
     inkscape:label="outline"
     style="display:inline"><path
       d="m 117.2902,48.6327 c 0.01,0.439 0.19891,0.78757 0.45,1.09 0.94988,1.144093 1.97,2.09 2.83,3.24 6.55,8.829 10.72,18.629 13.05,29.16 1.18,5.34 1.79,10.739 1.24,16.21 -0.25,2.549 -0.81,5.02 -1.92,7.35 -1.1,2.309 -2.66,4.219 -4.93,5.49 -2.98,1.68 -6.161,1.77 -9.411,1.109 -2.659,-0.54 -5.139,-1.579 -7.519,-2.859 -2.85,-1.521 -5.5,-3.331 -7.99,-5.331 -0.72,0.9 -1.451,1.79 -2.15,2.701 -0.36,0.449 -0.71,0.91 -1.04,1.37 -0.341,0.46 -0.66,0.929 -0.98,1.409 -2.901,4.361 -5.95,8.551 -10.571,11.111 -5.21,2.889 -10.54,5.59 -15.979,8.01 -5.18,2.31 -10.66,3.08 -16.33,1.76 -2.71,-0.62 -5.47,-1.01 -7.39,-1.361 -1.4,1.9 -2.17,3.571 -3.46,4.56 -3.45,2.641 -7.5,3.431 -11.77,2.601 -4.69,-0.92 -7.67,-4.06 -8.53,-8.49 -0.77,-3.99 0.49,-7.711 3.77,-10.74 5.22,-4.86 10.79,-4.85 17.26,-1.63 -0.37,-2.22 -0.48,-4.04 -0.99,-5.741 -0.16,-0.529 -0.32,-1.06 -0.49,-1.58 -0.49,-1.549 -1.03,-3.069 -1.63,-4.54 -2.11,1.741 -4.33,3.341 -6.69,4.761 -3.14,1.89 -6.42,3.44 -10.06,4.089 -2.52,0.46 -5.01,0.411 -7.43,-0.529 -3.11,-1.21 -5.16,-3.511 -6.5,-6.491 -1.46,-3.21 -1.9,-6.629 -1.97,-10.12 -0.06,-2.829 0.14,-5.67 0.57,-8.469 1.04,-6.77 2.96,-13.26 5.66,-19.51 2.7,-6.25 6.15,-12.03 10.71,-17.111 0.56,-0.62 0.94,-1.229 0.84,-2.08 -0.02,-0.16 0.03,-0.32 0.03,-0.479 0.04,-0.641 0.17,-1.301 0.07,-1.92 -0.17,-1.07 -0.73,-1.99 -1.51,-2.771 -1.28,-1.299 -2.57,-2.589 -3.84,-3.91 -1.15,-1.189 -2.27,-2.41 -3.06,-3.88 -1.56,-2.91 -0.67,-5.79 2.25,-7.309 0.14,-0.07 0.27,-0.151 0.4,-0.21 -0.46,-0.67 -0.93,-1.29 -1.34,-1.941 -1.87,-3.04 -1.69,-6.169 0.48,-8.99 1.23,-1.59 2.78,-2.8 4.43,-3.899 4.2,-2.79 8.79,-4.74 13.55,-6.33 8.77,-2.931 17.8,-4.42 27.02,-4.91 3.89,-0.21 7.78,-0.21 11.67,-0.031 3.82,0.17 7.62,0.521 11.39,1.09 5.8,0.861 11.49,2.16 17.03,4.091 4.39,1.52 8.64,3.35 12.549,5.89 1.83,1.189 3.561,2.49 4.861,4.269 1.91,2.62 2.21,5.391 0.65,8.271 -0.46,0.86 -1.61,2.440132 -1.61,2.440132 0,0 0.32,0.229868 0.49,0.318868 0.8,0.441 1.52,1 2.04,1.76 1.23,1.821 1.06,3.67 0.069,5.521 -0.779,1.469 -1.909,2.689 -3.059,3.88 -1.361,1.41 -2.77,2.78 -4.1,4.219 -0.85,0.92 -1.381,2.021 -1.261,3.34 0.071,0.681 0.151,2.051 0.151,2.051"
       style="fill:#000000;fill-opacity:1;fill-rule:nonzero;stroke:none"
       id="path30"
       transform="matrix(1.3333333,0,0,-1.3333333,0,188.976)"
       sodipodi:nodetypes="cscccscccccccccccccccccccccccccscccccccccccccccccccccccccccc" /></g></svg>
