<?xml version="1.0" encoding="UTF-8" standalone="no"?>
<svg
   xmlns:dc="http://purl.org/dc/elements/1.1/"
   xmlns:cc="http://creativecommons.org/ns#"
   xmlns:rdf="http://www.w3.org/1999/02/22-rdf-syntax-ns#"
   xmlns:svg="http://www.w3.org/2000/svg"
   xmlns="http://www.w3.org/2000/svg"
   xmlns:sodipodi="http://sodipodi.sourceforge.net/DTD/sodipodi-0.dtd"
   xmlns:inkscape="http://www.inkscape.org/namespaces/inkscape"
   version="1.1"
   id="svg10"
   xml:space="preserve"
   width="50mm"
   height="50mm"
   viewBox="0 0 188.97637 188.97637"
   sodipodi:docname="corgi_ornament_copper.svg"
   inkscape:version="1.0.1 (3bc2e813f5, 2020-09-07)"><metadata
     id="metadata16"><rdf:RDF><cc:Work
         rdf:about=""><dc:format>image/svg+xml</dc:format><dc:type
           rdf:resource="http://purl.org/dc/dcmitype/StillImage" /><dc:title></dc:title></cc:Work></rdf:RDF></metadata><defs
     id="defs14"><clipPath
       clipPathUnits="userSpaceOnUse"
       id="clipPath26"><path
         d="M 0,141.732 H 141.732 V 0 H 0 Z"
         id="path24" /></clipPath><clipPath
       clipPathUnits="userSpaceOnUse"
       id="clipPath70"><path
         d="M 0,141.732 H 141.732 V 0 H 0 Z"
         id="path68" /></clipPath></defs><sodipodi:namedview
     pagecolor="#ffffff"
     bordercolor="#666666"
     borderopacity="1"
     objecttolerance="10"
     gridtolerance="10"
     guidetolerance="10"
     inkscape:pageopacity="0"
     inkscape:pageshadow="2"
     inkscape:window-width="1920"
     inkscape:window-height="1027"
     id="namedview12"
     showgrid="false"
     inkscape:zoom="4.4291339"
     inkscape:cx="113.28879"
     inkscape:cy="98.237185"
     inkscape:window-x="-8"
     inkscape:window-y="-8"
     inkscape:window-maximized="1"
     inkscape:current-layer="layer2"
     inkscape:document-rotation="0"
     inkscape:document-units="mm"
     units="mm" /><g
     inkscape:groupmode="layer"
     id="layer2"
     inkscape:label="silkscreen"
     style="display:inline"><g
       id="g36"
       transform="matrix(1.3333333,0,0,-1.3333333,50.533199,94.612936)"
       style="fill:#ff0000;fill-opacity:1;stroke:none"><path
         d="m 0,0 c -0.04,-0.05 -0.06,-0.08 -0.07,-0.09 -0.78,-1.13 -1.58,-2.27 -2.29,-3.45 -1.97,-3.27 -3.35,-6.79 -4.05,-10.54 -0.34,-1.85 -0.44,-3.74 -0.65,-5.61 -0.02,-0.2 -0.02,-0.39 -0.03,-0.59 -0.03,-0.01 -0.07,-0.03 -0.11,-0.04 -0.56,0.62 -1.14,1.23 -1.69,1.86 -4.89,5.61 -8.43,12.02 -11.11,18.93 -1.72,4.42 -3.04,8.96 -3.9,13.63 -0.75,4.1 -1.17,8.22 -0.84,12.39 0.23,2.84 0.83,5.57 2.21,8.11 0.53,0.98 1.29,1.3 2.3,1.37 1.82,0.12 3.55,-0.24 5.25,-0.84 2.87,-1.02 5.46,-2.58 7.92,-4.36 2.65,-1.91 5.09,-4.03 7.37,-6.33 C -1.65,21.86 -4.04,19.56 -7.08,17.66 -10.21,15.7 -10.55,13.55 -9.28,10 -7.6,5.31 -4.39,2.11 0,0"
         style="fill:#ff0000;fill-opacity:1;fill-rule:nonzero;stroke:none"
         id="path38" /></g><g
       id="g40"
       transform="matrix(1.3333333,0,0,-1.3333333,175.98693,68.02627)"
       style="fill:#ff0000;fill-opacity:1;stroke:none"><path
         d="m 0,0 c -1.061,-11.07 -4.57,-21.33 -10.271,-30.86 -1.919,-3.22 -4.209,-6.18 -6.769,-8.93 -0.13,-0.14 -0.271,-0.28 -0.4,-0.41 -0.02,-0.02 -0.06,-0.01 -0.14,-0.02 -0.061,0.89 -0.11,1.77 -0.17,2.64 -0.181,2.34 -0.66,4.63 -1.351,6.87 -0.929,3.05 -2.299,5.9 -4.029,8.58 -0.08,0.13 -0.5,0.63 -1.13,1.37 0.72,0.62 1.329,1.74 1.909,3.36 1.871,5.17 2.42,10.56 1.5,15.84 -0.439,2.52 -1.489,5.02 -2.759,7.35 V 5.8 c 0.44,0.43 0.889,0.85 1.339,1.27 2.031,1.89 4.231,3.59 6.581,5.08 2.25,1.44 4.589,2.69 7.169,3.42 1.741,0.49 3.511,0.68 5.291,0.25 0.209,-0.05 0.43,-0.24 0.56,-0.43 1.239,-1.73 1.899,-3.71 2.31,-5.78 C 0.27,6.43 0.31,3.21 0,0"
         style="fill:#ff0000;fill-opacity:1;fill-rule:nonzero;stroke:none"
         id="path42" /></g><g
       id="g72"
       transform="matrix(1.3333333,0,0,-1.3333333,123.83333,160.67667)"
       style="fill:#ff0000;fill-opacity:1;stroke:none"><path
         d="m 0,0 c 0,-10.688 -9.278,-19.354 -20.725,-19.354 -11.446,0 -20.725,8.666 -20.725,19.354 0,10.688 8.733,5.419 20.179,5.419 C -9.825,5.419 0,10.688 0,0"
         style="fill:#ff0000;fill-opacity:1;fill-rule:nonzero;stroke:none"
         id="path74" /></g><g
       id="g76"
       transform="matrix(1.3333333,0,0,-1.3333333,72.930398,157.30307)"
       style="fill:#ff0000;fill-opacity:1;stroke:none"><path
         d="m 0,0 c -12.812,2.908 -28.523,17.436 -29.186,18.053 l 2.045,2.195 C -26.984,20.103 -11.356,5.653 0.664,2.926 Z"
         style="fill:#ff0000;fill-opacity:1;fill-rule:nonzero;stroke:none"
         id="path78" /></g><g
       id="g80"
       transform="matrix(1.3333333,0,0,-1.3333333,74.323598,173.51787)"
       style="fill:#ff0000;fill-opacity:1;stroke:none"><path
         d="m 0,0 c -12.327,0 -35.079,11.156 -36.041,11.632 l 1.327,2.689 C -34.484,14.209 -11.629,3 0,3 Z"
         style="fill:#ff0000;fill-opacity:1;fill-rule:nonzero;stroke:none"
         id="path82" /></g><g
       id="g84"
       transform="matrix(1.3333333,0,0,-1.3333333,118.70706,158.1416)"
       style="fill:#ff0000;fill-opacity:1;stroke:none"><path
         d="m 0,0 -0.812,2.889 c 20.202,5.683 30.798,16.3 30.903,16.407 l 2.143,-2.099 C 31.786,16.739 21.025,5.916 0,0"
         style="fill:#ff0000;fill-opacity:1;fill-rule:nonzero;stroke:none"
         id="path86" /></g><g
       id="g88"
       transform="matrix(1.3333333,0,0,-1.3333333,119.54813,172.52173)"
       style="fill:#ff0000;fill-opacity:1;stroke:none"><path
         d="m 0,0 -0.49,2.959 c 24.5,4.053 34.737,10.47 34.838,10.534 l 1.617,-2.527 C 35.533,10.689 25.103,4.151 0,0"
         style="fill:#ff0000;fill-opacity:1;fill-rule:nonzero;stroke:none"
         id="path90" /></g></g></svg>
