<?xml version="1.0" encoding="utf-8"?>
<!-- Generator: Adobe Illustrator 25.0.0, SVG Export Plug-In . SVG Version: 6.00 Build 0)  -->
<svg version="1.1" id="Layer_1" xmlns="http://www.w3.org/2000/svg" xmlns:xlink="http://www.w3.org/1999/xlink" x="0px" y="0px"
	 viewBox="0 0 283.5 283.5" style="enable-background:new 0 0 283.5 283.5;" xml:space="preserve">
<style type="text/css">
	.st0{fill:#287DBA;}
	.st1{fill:#CF642F;}
	.st2{fill:#FEFEFF;}
</style>
<g>
	<path class="st0" d="M55,142.7c-3.6-3.7-6.4-7-8-11.4c7.7,6.5,15.3,13.1,26,14.2c-8.5,7.7-21.4,8.4-30.8,1.9
		c-9.6-6.6-13.7-19.3-9.5-29.7c0.3-0.7,0.3-2.4,1.6-1.7c1.2,0.7,2.3,1.5,1.9,3.6c-1.4,6.7,0.6,12.6,5.2,17.6
		C44.8,141.1,49.1,143.2,55,142.7z"/>
	<path class="st0" d="M50.8,119.6c1.7-0.9,2.9-0.1,4.3,0.3c3.8,1.1,7.5,2.1,11.5,1c3.4-1,4.6-3.2,3.2-6.5c-1.5-3.6-4.4-6-8-7
		c-7.5-2.2-14.8-1.6-20.8,4.1c-1.3,1.2-1.9,1.1-3.1,0c-1.5-1.3-0.4-2,0.4-2.8c10.8-11.7,31.3-9.8,39.5,3.8c2.3,3.7,3.1,7.8,0.4,11.7
		c-2.7,3.8-6.6,4-10.8,3C61.4,125.8,56.2,122.9,50.8,119.6z"/>
	<path class="st0" d="M229.6,132.7c-1.9,3.5-3.7,7-5.6,10.5c-0.7,1.3-1.3,2.5-3.1,2.2c-1.9-0.3-1.5-1.9-1.8-3
		c-1.2-5.2-2.3-10.3-3.3-15.5c-0.2-0.9-1.9-2.9,0.6-2.9c1.9,0,4.9-1.9,5.8,1.9c0.8,3.6,1.6,7.3,2.6,12c2.3-4.3,4.2-7.9,6.1-11.3
		c0.7-1.3,0.9-3.2,3.1-2.8c2,0.4,1.4,2.2,1.7,3.4c0.8,3.4,1.4,6.9,2.3,11.2c2.1-4.2,3.8-7.7,5.5-11.2c0.5-0.9,0.9-1.9,1.5-2.8
		c0.5-0.8,1.6-0.9,2.3-0.5c1.2,0.7,0.1,1.4-0.2,2c-3.2,5.9-6.5,11.7-9.7,17.6c-0.7,1.2-1.4,2.1-3,2c-1.8-0.2-1.5-1.5-1.8-2.6
		c-0.8-3.3-1.5-6.6-2.2-9.9C230.2,132.8,229.9,132.8,229.6,132.7z"/>
	<path class="st1" d="M81.8,125.5c0.3,2.3-0.1,4.1-0.4,5.8c-1.7,8.3-6.3,11-14.3,8.3c-9.6-3.2-16.8-9.8-23.5-16.9
		c-4.1-4.3-7.7-8.9-11-13.9c3.8,4.4,8.2,8.1,12.8,11.6c6.9,5.2,14.3,9.7,23,11.3C74.6,132.8,78.3,131.2,81.8,125.5z"/>
	<path class="st0" d="M180.5,134.4c2.4,1.8,4.5,7.4,3.8,10c-0.6,1.8-2.2,0.9-3.3,1c-1.3,0.1-3,0.7-3.2-1.6c-0.2-1.9-0.2-3.8-0.5-5.6
		c-0.1-1.3-0.8-2.2-2.2-2.3c-1.8-0.1-1.7,1.3-1.9,2.4c-0.2,1.2-0.4,2.3-0.6,3.5c-0.6,3.6-2.2,4.6-5.7,3.7c-1.1-0.3-1.2-0.8-1-1.7
		c1-6,2-12.1,2.9-18.2c0.2-1.2,0.6-2,2-1.9c3.3,0.1,6.6,0,9.9,0.2c2.6,0.2,5,1,5.3,4.2c0.2,3-1.3,4.9-4,6
		C181.5,134.2,181,134.3,180.5,134.4z M179.5,128.8c0.1-2-0.7-3.2-2.5-3.5c-2.2-0.4-2,1.4-2.2,2.7c-0.2,1-0.4,2.1-0.5,3.1
		c0,0.9-1,2.2,0.3,2.8c1.3,0.5,2.6,0,3.4-1.1C179,131.6,179.3,130.1,179.5,128.8z"/>
	<path class="st0" d="M149.7,138c0,1.5-0.2,3.1,0.6,4.5c1.4,2.2,5.1,1.3,5.9-1.8c0.9-3.6,3.2-3,5.6-3c1.3,0,1.6,0.4,1.1,1.7
		c-1.3,4-7.3,6.8-12.8,5.9c-4.8-0.8-6.9-3.5-6.7-8.7c0.2-9.3,7.7-15,16.2-12.4c1.3,0.4,2.5,0.9,3.3,2c1,1.3,2.4,3,1.2,4.4
		c-1.1,1.4-3.3,0.6-5,0.4c-1.1-0.1-0.7-1.3-0.8-2.1c-0.1-1.6-0.5-3.1-2.3-3.5c-1.9-0.3-3.1,0.7-4,2.3C150.4,131,150,134.5,149.7,138
		z"/>
	<path class="st0" d="M102.7,133.6c-1.7,2.1-3.4,1.5-4.9,1.4c-2.4-0.2-3.4,0.8-3.6,3.1c0,0.4-0.1,0.7-0.2,1
		c-0.7,4.4-0.7,4.4,3.9,4.4c0.7,0,1.4,0,2.1,0c0.8,0.1,1.9-0.2,1.8,1c0,0.9-1,0.9-1.7,0.9c-3.9,0-7.8,0-11.7,0c-1.5,0-1.8-0.7-1.6-2
		c1-6,2-12.1,2.9-18.1c0.2-1.4,1-1.7,2.2-1.7c3.7,0,7.3,0,11,0c0.7,0,1.6-0.3,1.6,0.8c0,0.9-0.7,1.1-1.5,1.1c-1.5,0-3.1,0.1-4.6,0
		c-1.8-0.1-2.4,0.6-2.7,2.4c-0.9,5.4-1,5.4,4.5,5.5C100.9,133.4,101.5,133.5,102.7,133.6z"/>
	<path class="st0" d="M139.3,134.1c-1.5,1.6-3.3,1-4.8,0.9c-2.3-0.2-3.2,0.8-3.4,2.9c-0.1,0.9-0.1,1.9-0.4,2.8c-1,2.7,0.4,3,2.6,2.8
		c1.5-0.1,3.1,0,4.6,0c0.6,0,1,0.4,0.9,0.8c-0.1,0.4-0.5,0.9-0.8,0.9c-4.5,0.1-8.9,0.1-13.4,0c-1.1,0-0.8-0.9-0.7-1.6
		c1-6.2,1.9-12.3,2.9-18.5c0.2-1.1,0.7-1.7,1.9-1.7c3.9,0,7.8,0,11.7,0c0.6,0,1.3,0,1.3,0.8c0,0.9-0.7,1.1-1.5,1.1
		c-1.4,0-2.8,0.1-4.2,0c-2-0.2-2.8,0.5-3.1,2.6c-0.7,5.1-0.9,5.1,4.4,5.3c0.5,0,0.9,0,1.4,0.1C138.7,133.5,138.8,133.8,139.3,134.1z
		"/>
	<path class="st0" d="M112.7,145.4c-7.8,0-7.8,0-6.5-7.8c0.7-3.9,1.3-7.9,1.9-11.8c0.6-3.8,3.5-1.9,5.3-2c2.4-0.2,1.1,1.8,1,2.8
		c-0.7,5-1.5,10-2.4,15c-0.3,1.7,0.1,2.1,1.7,2.1c1.8,0,3.5,0,5.3,0c0.6,0,1.2,0.3,1.1,1c-0.1,0.5-0.6,0.7-1,0.7
		C117,145.4,114.8,145.4,112.7,145.4z"/>
	<path class="st1" d="M207.6,130.7c-0.1-1.9,0.1-4.1-2.5-5.1c-0.5-0.2-1.2-0.4-0.9-1.2c0.2-0.7,0.8-0.7,1.4-0.7
		c4.4,0,7.8,3.2,8.1,7.7c0.5,7.7-4.4,13.5-11.7,14c-0.7,0-1.8,0.6-2-0.7c-0.1-1,0.9-0.9,1.5-1c2.4-0.4,3.6-2.1,4.4-4.1
		C207,136.8,207.3,133.8,207.6,130.7z"/>
	<path class="st0" d="M189.5,136.6c0.1-7.1,4.6-12.3,11.1-12.9c0.6-0.1,1.5-0.5,1.8,0.4c0.2,0.5-0.1,1-0.6,1.1
		c-5.1,1.5-5.2,6-5.8,9.9c-0.4,2.9-1.4,6.2,1.9,8.3c0.4,0.3,0.6,0.7,0.2,1.2c-0.4,0.5-1,0.5-1.6,0.4
		C192.3,144.9,189.4,141.5,189.5,136.6z"/>
	<path class="st2" d="M179.5,128.8c-0.2,1.3-0.4,2.8-1.4,4c-0.9,1.1-2.2,1.7-3.4,1.1c-1.3-0.6-0.4-1.8-0.3-2.8c0-1,0.3-2.1,0.5-3.1
		c0.2-1.3,0-3.1,2.2-2.7C178.8,125.6,179.5,126.8,179.5,128.8z"/>
</g>
</svg>
