<?xml version="1.0" encoding="UTF-8" standalone="no"?>
<svg
   xmlns:dc="http://purl.org/dc/elements/1.1/"
   xmlns:cc="http://creativecommons.org/ns#"
   xmlns:rdf="http://www.w3.org/1999/02/22-rdf-syntax-ns#"
   xmlns:svg="http://www.w3.org/2000/svg"
   xmlns="http://www.w3.org/2000/svg"
   xmlns:sodipodi="http://sodipodi.sourceforge.net/DTD/sodipodi-0.dtd"
   xmlns:inkscape="http://www.inkscape.org/namespaces/inkscape"
   version="1.1"
   id="svg10"
   xml:space="preserve"
   width="49.999901mm"
   height="49.999901mm"
   viewBox="0 0 188.976 188.976"
   sodipodi:docname="font.svg"
   inkscape:version="1.0.1 (3bc2e813f5, 2020-09-07)"><metadata
     id="metadata16"><rdf:RDF><cc:Work
         rdf:about=""><dc:format>image/svg+xml</dc:format><dc:type
           rdf:resource="http://purl.org/dc/dcmitype/StillImage" /><dc:title /></cc:Work></rdf:RDF></metadata><defs
     id="defs14"><rect
       x="63.443554"
       y="40.414223"
       width="147.43288"
       height="13.546666"
       id="rect1578" /><clipPath
       clipPathUnits="userSpaceOnUse"
       id="clipPath26"><path
         d="M 0,141.732 H 141.732 V 0 H 0 Z"
         id="path24" /></clipPath><clipPath
       clipPathUnits="userSpaceOnUse"
       id="clipPath70"><path
         d="M 0,141.732 H 141.732 V 0 H 0 Z"
         id="path68" /></clipPath></defs><sodipodi:namedview
     pagecolor="#ffffff"
     bordercolor="#666666"
     borderopacity="1"
     objecttolerance="10"
     gridtolerance="10"
     guidetolerance="10"
     inkscape:pageopacity="0"
     inkscape:pageshadow="2"
     inkscape:window-width="1920"
     inkscape:window-height="1027"
     id="namedview12"
     showgrid="false"
     inkscape:zoom="8"
     inkscape:cx="71.856627"
     inkscape:cy="96.240527"
     inkscape:window-x="-8"
     inkscape:window-y="-8"
     inkscape:window-maximized="1"
     inkscape:current-layer="layer3"
     inkscape:document-rotation="0"
     units="mm"
     showguides="true"
     inkscape:guide-bbox="true"
     inkscape:lockguides="true"><sodipodi:guide
       position="48.61312,104.2423"
       orientation="0,-1"
       id="guide905"
       inkscape:locked="true" /><sodipodi:guide
       position="68.529332,89.833977"
       orientation="0,-1"
       id="guide907"
       inkscape:locked="true" /><sodipodi:guide
       position="90.680631,97.33748"
       orientation="1,0"
       id="guide909"
       inkscape:locked="true" /><sodipodi:guide
       position="96.86703,102.52607"
       orientation="1,0"
       id="guide911"
       inkscape:locked="true" /><sodipodi:guide
       position="109.60155,102.22284"
       orientation="1,0"
       id="guide913"
       inkscape:locked="true" /></sodipodi:namedview><g
     inkscape:groupmode="layer"
     id="layer3"
     inkscape:label="silkscreen 1"
     style="display:inline"><path
       d="m 128.09853,86.753164 c -1.57984,0 -2.67591,-1.092817 -2.67591,-2.756883 0,-1.664065 1.09607,-2.765162 2.67591,-2.765162 h 1.98803 v 5.522045 z m 0,-1.034865 h 0.91465 v -3.452314 h -0.91465 c -1.03559,0 -1.57984,0.753382 -1.57984,1.730296 0,0.935519 0.58204,1.722018 1.57984,1.722018 z"
       style="font-style:normal;font-variant:normal;font-weight:normal;font-stretch:normal;font-size:7.55906px;line-height:1.25;font-family:'Proxima Nova';-inkscape-font-specification:'Proxima Nova';white-space:pre;fill:#ff0000;fill-opacity:1;stroke:none;stroke-width:1.04653"
       id="path962" /><path
       d="m 122.96594,86.852512 c -0.56693,0 -1.14142,-0.190415 -1.50425,-0.554688 l 0.4233,-0.678873 c 0.23434,0.248368 0.6652,0.397389 0.97512,0.397389 0.61985,0 0.99024,-0.422225 1.05071,-0.92724 h -2.7137 v -0.23181 c 0,-1.308071 0.74079,-2.202195 1.82929,-2.202195 1.11118,0 1.88977,0.935519 1.88977,2.094569 0,1.283234 -0.83906,2.102848 -1.95024,2.102848 z m -0.83906,-2.4754 h 1.79906 c -0.0453,-0.397389 -0.30236,-0.885845 -0.89953,-0.885845 -0.63496,0 -0.87685,0.505014 -0.89953,0.885845 z"
       style="font-style:normal;font-variant:normal;font-weight:normal;font-stretch:normal;font-size:7.55906px;line-height:1.25;font-family:'Proxima Nova';-inkscape-font-specification:'Proxima Nova';white-space:pre;fill:#ff0000;fill-opacity:1;stroke:none;stroke-width:1.04653"
       id="path964" /><path
       d="m 119.18641,86.852512 c -1.01291,0 -1.57984,-0.554688 -1.57984,-1.283234 0,-1.614391 2.16189,-1.117655 2.16189,-1.713739 0,-0.22353 -0.22677,-0.397387 -0.57449,-0.397387 -0.44598,0 -0.86173,0.206972 -1.08094,0.463619 l -0.38551,-0.720266 c 0.36283,-0.314601 0.85417,-0.54641 1.47401,-0.54641 0.96,0 1.4967,0.587804 1.4967,1.258397 0,1.572996 -2.16945,1.034866 -2.16945,1.69718 0,0.248368 0.19653,0.430505 0.61228,0.430505 0.45354,0 0.9978,-0.273205 1.26236,-0.54641 l 0.41575,0.736826 c -0.38551,0.389109 -0.99779,0.620919 -1.63276,0.620919 z"
       style="font-style:normal;font-variant:normal;font-weight:normal;font-stretch:normal;font-size:7.55906px;line-height:1.25;font-family:'Proxima Nova';-inkscape-font-specification:'Proxima Nova';white-space:pre;fill:#ff0000;fill-opacity:1;stroke:none;stroke-width:1.04653"
       id="path966" /><path
       d="m 116.4198,82.323937 c -0.31748,0 -0.57449,-0.281483 -0.57449,-0.629198 0,-0.347715 0.25701,-0.62092 0.57449,-0.62092 0.30992,0 0.57449,0.273205 0.57449,0.62092 0,0.347715 -0.26457,0.629198 -0.57449,0.629198 z m -0.48378,4.429227 v -3.998722 h 0.96 v 3.998722 z"
       style="font-style:normal;font-variant:normal;font-weight:normal;font-stretch:normal;font-size:7.55906px;line-height:1.25;font-family:'Proxima Nova';-inkscape-font-specification:'Proxima Nova';white-space:pre;fill:#ff0000;fill-opacity:1;stroke:none;stroke-width:1.04653"
       id="path968" /><path
       d="m 113.4869,88.375835 c -0.89953,0 -1.97291,-0.372551 -1.97291,-1.895874 v -3.725519 h 0.96756 v 0.513293 c 0.2948,-0.405667 0.68787,-0.61264 1.1263,-0.61264 0.9222,0 1.61007,0.728546 1.61007,2.036617 0,1.332907 -0.69543,2.036616 -1.61007,2.036616 -0.44599,0 -0.83906,-0.23181 -1.1263,-0.629198 v 0.405667 c 0,0.786498 0.54425,1.010029 1.00535,1.010029 0.4611,0 0.84661,-0.140741 1.14142,-0.496736 l 0.43087,0.761662 c -0.46111,0.438783 -0.94489,0.596083 -1.57229,0.596083 z m -0.18142,-2.583025 c 0.54426,0 0.92221,-0.413947 0.92221,-1.101098 0,-0.687151 -0.37795,-1.101098 -0.92221,-1.101098 -0.31748,0 -0.66519,0.190415 -0.82393,0.455341 v 1.291513 c 0.15874,0.256647 0.50645,0.455342 0.82393,0.455342 z"
       style="font-style:normal;font-variant:normal;font-weight:normal;font-stretch:normal;font-size:7.55906px;line-height:1.25;font-family:'Proxima Nova';-inkscape-font-specification:'Proxima Nova';white-space:pre;fill:#ff0000;fill-opacity:1;stroke:none;stroke-width:1.04653"
       id="path970" /><path
       d="M 107.1373,86.753164 V 83.93005 c 0,-0.77822 0.38551,-1.274955 1.18677,-1.274955 0.59716,0 1.04315,0.314599 1.27748,0.620919 v -0.521572 h 0.96 v 3.998722 h -0.96 v -2.690651 c -0.15874,-0.240089 -0.45354,-0.471899 -0.8315,-0.471899 -0.40819,0 -0.67275,0.190415 -0.67275,0.745104 v 2.417446 z"
       style="font-style:normal;font-variant:normal;font-weight:normal;font-stretch:normal;font-size:7.55906px;line-height:1.25;font-family:'Proxima Nova';-inkscape-font-specification:'Proxima Nova';white-space:pre;fill:#ff0000;fill-opacity:1;stroke:none;stroke-width:1.04653"
       id="path972" /><path
       d="m 104.46896,86.852512 c -0.56693,0 -1.14142,-0.190415 -1.50425,-0.554688 l 0.42331,-0.678873 c 0.23433,0.248368 0.66519,0.397389 0.97511,0.397389 0.61985,0 0.99024,-0.422225 1.05071,-0.92724 h -2.7137 v -0.23181 c 0,-1.308071 0.74079,-2.202195 1.82929,-2.202195 1.11118,0 1.88977,0.935519 1.88977,2.094569 0,1.283234 -0.83906,2.102848 -1.95024,2.102848 z m -0.83905,-2.4754 h 1.79905 c -0.0454,-0.397389 -0.30236,-0.885845 -0.89953,-0.885845 -0.63496,0 -0.87685,0.505014 -0.89952,0.885845 z"
       style="font-style:normal;font-variant:normal;font-weight:normal;font-stretch:normal;font-size:7.55906px;line-height:1.25;font-family:'Proxima Nova';-inkscape-font-specification:'Proxima Nova';white-space:pre;fill:#ff0000;fill-opacity:1;stroke:none;stroke-width:1.04653"
       id="path974" /><path
       d="m 98.527542,86.753164 v -5.522045 h 0.96756 v 2.036616 c 0.287244,-0.405667 0.695428,-0.61264 1.126298,-0.61264 0.92977,0 1.61764,0.794778 1.61764,2.102848 0,1.332908 -0.69543,2.094569 -1.61764,2.094569 -0.43842,0 -0.839054,-0.215252 -1.126298,-0.612641 v 0.513293 z m 1.799058,-0.836171 c 0.54425,0 0.9222,-0.471899 0.9222,-1.15905 0,-0.69543 -0.37795,-1.167329 -0.9222,-1.167329 -0.32504,0 -0.672758,0.190415 -0.831498,0.455341 v 1.415697 c 0.15874,0.264926 0.506458,0.455341 0.831498,0.455341 z"
       style="font-style:normal;font-variant:normal;font-weight:normal;font-stretch:normal;font-size:7.55906px;line-height:1.25;font-family:'Proxima Nova';-inkscape-font-specification:'Proxima Nova';white-space:pre;fill:#ff0000;fill-opacity:1;stroke:none;stroke-width:1.04653"
       id="path976" /><path
       d="m 93.95763,85.469931 v -1.415697 c -0.15874,-0.264926 -0.51402,-0.46362 -0.82394,-0.46362 -0.55937,0 -0.92976,0.471899 -0.92976,1.167329 0,0.69543 0.37039,1.15905 0.92976,1.15905 0.30992,0 0.6652,-0.190415 0.82394,-0.447062 z m 0,1.283233 v -0.513293 c -0.28725,0.397389 -0.68788,0.612641 -1.1263,0.612641 -0.92221,0 -1.61764,-0.761661 -1.61764,-2.094569 0,-1.30807 0.68787,-2.102848 1.61764,-2.102848 0.43086,0 0.83905,0.206973 1.1263,0.61264 v -2.036616 h 0.959998 v 5.522045 z"
       style="font-style:normal;font-variant:normal;font-weight:normal;font-stretch:normal;font-size:7.55906px;line-height:1.25;font-family:'Proxima Nova';-inkscape-font-specification:'Proxima Nova';white-space:pre;fill:#ff0000;fill-opacity:1;stroke:none;stroke-width:1.04653"
       id="path978" /><path
       d="m 90.61654,88.317883 c -0.12095,0.03312 -0.36284,0.05795 -0.47623,0.05795 -0.6274,-0.01656 -1.11118,-0.215251 -1.3833,-0.968634 L 87.0411,82.75444 h 1.03559 l 0.95244,2.781721 0.95244,-2.781721 h 1.02804 l -1.48158,4.056676 0.13606,0.339436 c 0.0907,0.215252 0.25701,0.289762 0.50646,0.289762 0.0907,0 0.21921,-0.02484 0.30236,-0.06623 z"
       style="font-style:normal;font-variant:normal;font-weight:normal;font-stretch:normal;font-size:7.55906px;line-height:1.25;font-family:'Proxima Nova';-inkscape-font-specification:'Proxima Nova';white-space:pre;fill:#ff0000;fill-opacity:1;stroke:none;stroke-width:1.04653"
       id="path980" /><path
       d="m 110.60627,97.568567 v -5.552915 h 1.51181 l 1.22456,3.355061 1.22457,-3.355061 h 1.50426 v 5.552915 h -1.07338 v -3.887874 l -1.42111,3.887874 h -0.46867 l -1.4211,-3.887874 v 3.887874 z"
       style="font-style:normal;font-variant:normal;font-weight:normal;font-stretch:normal;font-size:7.93289px;line-height:1.25;font-family:'Proxima Nova';-inkscape-font-specification:'Proxima Nova';fill:#ff0000;fill-opacity:1;stroke:none;stroke-width:1.04945"
       id="path983" /><path
       d="m 106.47902,97.568567 v -2.597464 c 0,-1.15721 0.76347,-1.523516 1.59496,-1.523516 0.57449,0 1.14898,0.199806 1.59496,0.632716 l -0.36283,0.70764 c -0.30992,-0.31636 -0.67275,-0.47453 -1.06582,-0.47453 -0.48379,0 -0.80127,0.2664 -0.80127,0.67434 v 0.54114 c 0.24189,-0.31636 0.67276,-0.49119 1.15654,-0.49119 0.58204,0 1.26992,0.35798 1.26992,1.29873 0,0.89912 -0.68788,1.332034 -1.26992,1.332034 -0.47622,0 -0.90708,-0.19148 -1.15654,-0.516164 v 0.416264 z m 1.73103,-0.616064 c 0.37795,0 0.68787,-0.21646 0.68787,-0.59109 0,-0.39129 -0.30992,-0.60774 -0.68787,-0.60774 -0.30992,0 -0.61229,0.11655 -0.77103,0.34965 v 0.49952 c 0.15874,0.2331 0.46111,0.34966 0.77103,0.34966 z"
       style="font-style:normal;font-variant:normal;font-weight:normal;font-stretch:normal;font-size:7.93289px;line-height:1.25;font-family:'Proxima Nova';-inkscape-font-specification:'Proxima Nova';fill:#ff0000;fill-opacity:1;stroke:none;stroke-width:1.04945"
       id="path985" /><path
       d="m 102.04943,97.568567 v -5.552915 h 0.96755 v 2.048001 c 0.28725,-0.40794 0.69543,-0.616066 1.1263,-0.616066 0.92976,0 1.61764,0.799216 1.61764,2.114606 0,1.34035 -0.69543,2.106274 -1.61764,2.106274 -0.43842,0 -0.83905,-0.21645 -1.1263,-0.616064 v 0.516164 z m 1.79904,-0.840844 c 0.54426,0 0.92221,-0.47454 0.92221,-1.16553 0,-0.69932 -0.37795,-1.17386 -0.92221,-1.17386 -0.32503,0 -0.67275,0.19148 -0.83149,0.45789 v 1.42361 c 0.15874,0.26641 0.50646,0.45789 0.83149,0.45789 z"
       style="font-style:normal;font-variant:normal;font-weight:normal;font-stretch:normal;font-size:7.93289px;line-height:1.25;font-family:'Proxima Nova';-inkscape-font-specification:'Proxima Nova';fill:#ff0000;fill-opacity:1;stroke:none;stroke-width:1.04945"
       id="path987" /><path
       d="m 99.381085,97.668467 c -0.566929,0 -1.141418,-0.19148 -1.504253,-0.557784 l 0.423308,-0.68267 c 0.23433,0.24975 0.665197,0.39961 0.975119,0.39961 0.619839,0 0.990241,-0.42459 1.050711,-0.93242 h -2.713705 v -0.23311 c 0,-1.31538 0.740788,-2.214506 1.829293,-2.214506 1.111182,0 1.889762,0.940746 1.889762,2.106276 0,1.29041 -0.83905,2.114604 -1.950235,2.114604 z m -0.839056,-2.489234 h 1.799051 c -0.0454,-0.39961 -0.30235,-0.8908 -0.899522,-0.8908 -0.634962,0 -0.876851,0.50784 -0.899529,0.8908 z"
       style="font-style:normal;font-variant:normal;font-weight:normal;font-stretch:normal;font-size:7.93289px;line-height:1.25;font-family:'Proxima Nova';-inkscape-font-specification:'Proxima Nova';fill:#ff0000;fill-opacity:1;stroke:none;stroke-width:1.04945"
       id="path989" /><path
       d="m 94.021726,96.278153 v -1.42361 c -0.158741,-0.2664 -0.514017,-0.46621 -0.823938,-0.46621 -0.559371,0 -0.929765,0.47454 -0.929765,1.17386 0,0.69931 0.370394,1.16553 0.929765,1.16553 0.309921,0 0.665197,-0.19148 0.823938,-0.44957 z m 0,1.290414 v -0.516164 c -0.287245,0.399614 -0.687875,0.616064 -1.126301,0.616064 -0.922205,0 -1.617639,-0.765924 -1.617639,-2.106274 0,-1.31539 0.687875,-2.114606 1.617639,-2.114606 0.430867,0 0.839056,0.208126 1.126301,0.616066 v -2.048001 h 0.960001 v 5.552915 z"
       style="font-style:normal;font-variant:normal;font-weight:normal;font-stretch:normal;font-size:7.93289px;line-height:1.25;font-family:'Proxima Nova';-inkscape-font-specification:'Proxima Nova';fill:#ff0000;fill-opacity:1;stroke:none;stroke-width:1.04945"
       id="path991" /><path
       d="m 90.68063,99.142027 c -0.120944,0.0333 -0.362834,0.0583 -0.47622,0.0583 -0.627403,-0.0167 -1.111183,-0.21645 -1.383309,-0.97405 l -1.715907,-4.678764 h 1.035592 l 0.952441,2.79726 0.952443,-2.79726 h 1.028032 l -1.481576,4.079354 0.136063,0.34133 c 0.09071,0.21645 0.257008,0.29138 0.506457,0.29138 0.09071,0 0.219213,-0.025 0.302362,-0.0666 z"
       style="font-style:normal;font-variant:normal;font-weight:normal;font-stretch:normal;font-size:7.93289px;line-height:1.25;font-family:'Proxima Nova';-inkscape-font-specification:'Proxima Nova';fill:#ff0000;fill-opacity:1;stroke:none;stroke-width:1.04945"
       id="path993" /><path
       d="m 65.266904,86.898549 c -0.914647,0 -1.632757,-0.377953 -2.146773,-0.952442 v -1.935119 h 2.403781 v 0.937323 h -1.330395 v 0.604725 c 0.204095,0.188977 0.627402,0.385512 1.073387,0.385512 0.914646,0 1.579843,-0.702992 1.579843,-1.655434 0,-0.952441 -0.665197,-1.655434 -1.579843,-1.655434 -0.536694,0 -0.96756,0.302362 -1.194332,0.657638 l -0.891969,-0.48378 c 0.377953,-0.597165 1.035591,-1.1263 2.086301,-1.1263 1.474016,0 2.683466,1.012915 2.683466,2.607876 0,1.587403 -1.20945,2.615435 -2.683466,2.615435 z"
       style="font-style:normal;font-variant:normal;font-weight:normal;font-stretch:normal;font-size:7.55906px;line-height:1.25;font-family:'Proxima Nova';-inkscape-font-specification:'Proxima Nova';fill:#ff0000;fill-opacity:1;stroke:none"
       id="path941" /><path
       d="m 59.136511,86.800281 v -2.358427 c 0,-1.050709 0.763465,-1.383308 1.594962,-1.383308 0.574488,0 1.148977,0.181418 1.594961,0.574489 l -0.362835,0.64252 c -0.309921,-0.287244 -0.672756,-0.430866 -1.065827,-0.430866 -0.48378,0 -0.80126,0.24189 -0.80126,0.612284 v 0.491338 c 0.24189,-0.287244 0.672756,-0.445984 1.156536,-0.445984 0.582047,0 1.269922,0.32504 1.269922,1.179213 0,0.816379 -0.687875,1.20945 -1.269922,1.20945 -0.476221,0 -0.907087,-0.173858 -1.156536,-0.468662 v 0.377953 z m 1.731025,-0.55937 c 0.377953,0 0.687874,-0.196536 0.687874,-0.536694 0,-0.355275 -0.309921,-0.551811 -0.687874,-0.551811 -0.309922,0 -0.612284,0.105827 -0.771024,0.317481 v 0.453543 c 0.15874,0.211654 0.461102,0.317481 0.771024,0.317481 z"
       style="font-style:normal;font-variant:normal;font-weight:normal;font-stretch:normal;font-size:7.55906px;line-height:1.25;font-family:'Proxima Nova';-inkscape-font-specification:'Proxima Nova';fill:#ff0000;fill-opacity:1;stroke:none"
       id="path943" /><path
       d="m 54.75982,86.800281 v -2.577639 c 0,-0.710552 0.385512,-1.164096 1.186773,-1.164096 0.597165,0 1.04315,0.287245 1.277481,0.56693 v -0.476221 h 0.96 v 3.651026 h -0.96 V 84.343587 C 57.065333,84.124374 56.77053,83.91272 56.392577,83.91272 c -0.408189,0 -0.672756,0.173859 -0.672756,0.680316 v 2.207245 z"
       style="font-style:normal;font-variant:normal;font-weight:normal;font-stretch:normal;font-size:7.55906px;line-height:1.25;font-family:'Proxima Nova';-inkscape-font-specification:'Proxima Nova';fill:#ff0000;fill-opacity:1;stroke:none"
       id="path945" /><path
       d="m 52.091484,86.89099 c -0.56693,0 -1.141419,-0.173858 -1.504253,-0.506457 l 0.423307,-0.619843 c 0.234331,0.226772 0.665197,0.362835 0.975119,0.362835 0.619843,0 0.990237,-0.385512 1.050709,-0.846615 h -2.713703 v -0.211654 c 0,-1.194331 0.740788,-2.01071 1.829293,-2.01071 1.111182,0 1.889765,0.854174 1.889765,1.912443 0,1.171654 -0.839056,1.920001 -1.950237,1.920001 z m -0.839056,-2.260159 h 1.799056 c -0.04535,-0.362835 -0.302362,-0.808819 -0.899528,-0.808819 -0.634961,0 -0.876851,0.461102 -0.899528,0.808819 z"
       style="font-style:normal;font-variant:normal;font-weight:normal;font-stretch:normal;font-size:7.55906px;line-height:1.25;font-family:'Proxima Nova';-inkscape-font-specification:'Proxima Nova';fill:#ff0000;fill-opacity:1;stroke:none"
       id="path947" /><path
       d="m 46.475105,86.800281 v -2.358427 c 0,-1.050709 0.763465,-1.383308 1.594962,-1.383308 0.574489,0 1.148977,0.181418 1.594962,0.574489 l -0.362835,0.64252 c -0.309922,-0.287244 -0.672756,-0.430866 -1.065828,-0.430866 -0.483779,0 -0.80126,0.24189 -0.80126,0.612284 v 0.491338 c 0.24189,-0.287244 0.672756,-0.445984 1.156536,-0.445984 0.582048,0 1.269922,0.32504 1.269922,1.179213 0,0.816379 -0.687874,1.20945 -1.269922,1.20945 -0.476221,0 -0.907087,-0.173858 -1.156536,-0.468662 v 0.377953 z m 1.731025,-0.55937 c 0.377953,0 0.687875,-0.196536 0.687875,-0.536694 0,-0.355275 -0.309922,-0.551811 -0.687875,-0.551811 -0.309921,0 -0.612284,0.105827 -0.771024,0.317481 v 0.453543 c 0.15874,0.211654 0.461103,0.317481 0.771024,0.317481 z"
       style="font-style:normal;font-variant:normal;font-weight:normal;font-stretch:normal;font-size:7.55906px;line-height:1.25;font-family:'Proxima Nova';-inkscape-font-specification:'Proxima Nova';fill:#ff0000;fill-opacity:1;stroke:none"
       id="path949" /><path
       d="m 38.099683,86.800281 v -5.041893 h 1.511812 l 1.224568,3.046301 1.224567,-3.046301 h 1.504253 v 5.041893 H 42.491497 V 83.2702 l -1.421103,3.530081 H 40.601732 L 39.180629,83.2702 v 3.530081 z"
       style="font-style:normal;font-variant:normal;font-weight:normal;font-stretch:normal;font-size:7.55906px;line-height:1.25;font-family:'Proxima Nova';-inkscape-font-specification:'Proxima Nova';fill:#ff0000;fill-opacity:1;stroke:none"
       id="path951" /><path
       d="m 36.648346,82.756184 c -0.31748,0 -0.574488,-0.257008 -0.574488,-0.574489 0,-0.31748 0.257008,-0.566929 0.574488,-0.566929 0.309922,0 0.574489,0.249449 0.574489,0.566929 0,0.317481 -0.264567,0.574489 -0.574489,0.574489 z m -0.48378,4.044097 v -3.651026 h 0.960001 v 3.651026 z"
       style="font-style:normal;font-variant:normal;font-weight:normal;font-stretch:normal;font-size:7.55906px;line-height:1.25;font-family:'Proxima Nova';-inkscape-font-specification:'Proxima Nova';fill:#ff0000;fill-opacity:1;stroke:none"
       id="path953" /><path
       d="m 31.780324,86.800281 v -2.592757 c 0,-0.710552 0.385512,-1.148978 1.186772,-1.148978 0.597166,0 1.05071,0.287245 1.285041,0.56693 v -1.867088 h 0.96 v 5.041893 h -0.96 v -2.456694 c -0.1663,-0.219213 -0.461103,-0.430867 -0.831497,-0.430867 -0.415748,0 -0.680315,0.158741 -0.680315,0.665198 v 2.222363 z"
       style="font-style:normal;font-variant:normal;font-weight:normal;font-stretch:normal;font-size:7.55906px;line-height:1.25;font-family:'Proxima Nova';-inkscape-font-specification:'Proxima Nova';fill:#ff0000;fill-opacity:1;stroke:none"
       id="path955" /><path
       d="m 27.675755,86.800281 v -2.358427 c 0,-1.050709 0.763465,-1.383308 1.594961,-1.383308 0.574489,0 1.148977,0.181418 1.594962,0.574489 l -0.362835,0.64252 c -0.309921,-0.287244 -0.672756,-0.430866 -1.065827,-0.430866 -0.48378,0 -0.801261,0.24189 -0.801261,0.612284 v 0.491338 c 0.24189,-0.287244 0.672757,-0.445984 1.156536,-0.445984 0.582048,0 1.269923,0.32504 1.269923,1.179213 0,0.816379 -0.687875,1.20945 -1.269923,1.20945 -0.47622,0 -0.907087,-0.173858 -1.156536,-0.468662 v 0.377953 z m 1.731024,-0.55937 c 0.377953,0 0.687875,-0.196536 0.687875,-0.536694 0,-0.355275 -0.309922,-0.551811 -0.687875,-0.551811 -0.309921,0 -0.612283,0.105827 -0.771024,0.317481 v 0.453543 c 0.158741,0.211654 0.461103,0.317481 0.771024,0.317481 z"
       style="font-style:normal;font-variant:normal;font-weight:normal;font-stretch:normal;font-size:7.55906px;line-height:1.25;font-family:'Proxima Nova';-inkscape-font-specification:'Proxima Nova';fill:#ff0000;fill-opacity:1;stroke:none"
       id="path957" /><path
       d="m 26.247097,82.756184 c -0.31748,0 -0.574488,-0.257008 -0.574488,-0.574489 0,-0.31748 0.257008,-0.566929 0.574488,-0.566929 0.309922,0 0.574489,0.249449 0.574489,0.566929 0,0.317481 -0.264567,0.574489 -0.574489,0.574489 z m -0.48378,4.044097 v -3.651026 h 0.960001 v 3.651026 z"
       style="font-style:normal;font-variant:normal;font-weight:normal;font-stretch:normal;font-size:7.55906px;line-height:1.25;font-family:'Proxima Nova';-inkscape-font-specification:'Proxima Nova';fill:#ff0000;fill-opacity:1;stroke:none"
       id="path959" /><path
       fill-rule="evenodd"
       clip-rule="evenodd"
       d="m 71.633218,86.816074 0.250613,-0.0051 0.238976,-0.02541 0.227276,-0.0444 0.215174,-0.06192 0.203003,-0.07823 0.190501,-0.09294 0.177796,-0.106583 0.164957,-0.118486 0.151785,-0.129452 0.138344,-0.138679 0.124838,-0.146703 0.11093,-0.153389 0.09696,-0.158606 0.08264,-0.162483 0.06814,-0.165024 0.05343,-0.166094 0.03651,-0.142691 0.03029,-0.142424 0.02407,-0.141888 0.01772,-0.141488 0.01123,-0.140952 0.0048,-0.140418 -0.0017,-0.139749 -0.0085,-0.139147 -0.01525,-0.138546 -0.02207,-0.137809 -0.02895,-0.137008 -0.03604,-0.136272 -0.04313,-0.13547 -0.05028,-0.1346 -0.05757,-0.133731 -0.06493,-0.132795 -0.0797,-0.143293 -0.08592,-0.134466 -0.09194,-0.125841 -0.09789,-0.117149 -0.103775,-0.108589 -0.109525,-0.100031 -0.115142,-0.09167 -0.120693,-0.08331 -0.126108,-0.07502 -0.131458,-0.0668 -0.136674,-0.05864 -0.141754,-0.05055 -0.14677,-0.04259 -0.151651,-0.03457 -0.156465,-0.02675 -0.161147,-0.01892 -0.1011,-0.0082 -0.100901,-0.0057 -0.100632,-0.0032 -0.100365,-3.29e-4 -0.100031,0.0025 -0.0997,0.0056 -0.09923,0.0088 -0.09876,0.01224 -0.09816,0.01578 -0.09763,0.01959 -0.09695,0.02347 -0.09629,0.02755 -0.09555,0.03176 -0.09475,0.03617 -0.09395,0.04072 -0.09294,0.04547 -0.157001,0.08713 -0.147037,0.09374 -0.137008,0.100165 -0.127178,0.106516 -0.117483,0.112803 -0.107787,0.11902 -0.09822,0.125106 -0.08886,0.13119 -0.07944,0.137141 -0.07021,0.142959 -0.06105,0.148776 -0.05202,0.154526 -0.04306,0.160143 -0.03424,0.165692 -0.02541,0.171176 -0.01672,0.176525 -0.0053,0.0888 -0.0034,0.08866 -0.0014,0.08853 8.21e-4,0.08826 0.0031,0.088 0.0054,0.08759 0.0079,0.08733 0.01057,0.08692 0.01331,0.08652 0.01618,0.08599 0.01919,0.08559 0.0222,0.08492 0.02548,0.08438 0.02889,0.08385 0.0323,0.08318 0.03591,0.08238 0.09181,0.184014 0.100031,0.170909 0.108121,0.15807 0.116145,0.145366 0.12397,0.132928 0.131657,0.120492 0.139214,0.108322 0.146636,0.09655 0.153993,0.08479 0.161145,0.07315 0.168234,0.06165 0.175188,0.05055 0.181941,0.03958 0.188694,0.02875 0.195181,0.01819 0.2016,0.0076 z m -0.703225,-2.623269 v -0.0051 l -6.7e-5,-0.0051 -6.7e-5,-0.0052 -6.7e-5,-0.0051 -6.7e-5,-0.0051 -6.7e-5,-0.0052 -6.6e-5,-0.0052 -6.7e-5,-0.0051 -6.7e-5,-0.0051 v -0.0052 -0.0052 l 6.7e-5,-0.0051 6.7e-5,-0.0051 1.33e-4,-0.0052 1.37e-4,-0.0051 2.74e-4,-0.0051 0.0092,-0.09047 0.01718,-0.08606 0.02474,-0.08138 0.03189,-0.07623 0.03858,-0.07081 0.04487,-0.06506 0.05075,-0.05884 0.05617,-0.05236 0.06118,-0.04547 0.06566,-0.03831 0.06988,-0.03069 0.07355,-0.02273 0.07689,-0.01444 0.0797,-0.0058 0.08211,0.0033 0.08412,0.01257 0.05724,0.01531 0.0555,0.02187 0.05349,0.02795 0.05109,0.03377 0.04848,0.03905 0.0456,0.044 0.04239,0.04848 0.03898,0.05262 0.0353,0.05637 0.03129,0.05958 0.02701,0.06252 0.02247,0.06506 0.01765,0.06713 0.01257,0.0688 0.0072,0.07014 0.0015,0.07088 -0.0041,0.07342 -0.0094,0.07181 -0.01438,0.06981 -0.01919,0.0674 -0.02374,0.06473 -0.02802,0.06178 -0.0321,0.05857 -0.03591,0.05483 -0.03952,0.05095 -0.04279,0.04654 -0.046,0.04199 -0.04881,0.03691 -0.05142,0.03169 -0.05389,0.02594 -0.05597,0.02006 -0.05797,0.01364 -0.08779,0.01083 -0.08505,0.0011 -0.08191,-0.0083 -0.07836,-0.01739 -0.07442,-0.02594 -0.07007,-0.0341 -0.06533,-0.04212 -0.06018,-0.04961 -0.05463,-0.0567 -0.04861,-0.06352 -0.04239,-0.06994 -0.03557,-0.07596 -0.02849,-0.08171 -0.02086,-0.08692 -0.01297,-0.09187 -0.0046,-0.09655 z"
       id="path1631"
       style="fill:#ff0000;fill-opacity:1;stroke:none;stroke-width:0.136941" /><path
       fill-rule="evenodd"
       clip-rule="evenodd"
       d="m 77.093124,86.783176 0.248673,-0.0052 0.23764,-0.02528 0.226407,-0.04413 0.214772,-0.06138 0.202803,-0.07756 0.190634,-0.09241 0.17813,-0.106049 0.165358,-0.118084 0.152253,-0.128917 0.138813,-0.138679 0.125105,-0.146971 0.111131,-0.153924 0.09682,-0.159541 0.08218,-0.163955 0.06727,-0.16703 0.05209,-0.168902 0.044,-0.184282 0.03477,-0.182944 0.02528,-0.181072 0.01551,-0.179601 0.0055,-0.177594 -0.0047,-0.175857 -0.01531,-0.173716 -0.02608,-0.171644 -0.03718,-0.169438 -0.04848,-0.16703 -0.06011,-0.164623 -0.07195,-0.162082 -0.08405,-0.159407 -0.09649,-0.156666 -0.109124,-0.153858 -0.121963,-0.150915 -0.08365,-0.09207 -0.08699,-0.08579 -0.0902,-0.0795 -0.09328,-0.07342 -0.09629,-0.0674 -0.0991,-0.06158 -0.10197,-0.0559 -0.104645,-0.05028 -0.107252,-0.04487 -0.109726,-0.03952 -0.112134,-0.0343 -0.114474,-0.02929 -0.11668,-0.02434 -0.118753,-0.01953 -0.120759,-0.01484 -0.122699,-0.01036 -0.121294,-0.0063 -0.120492,-0.0028 -0.119756,8.63e-4 -0.11882,0.0048 -0.117884,0.009 -0.116814,0.01337 -0.115677,0.01792 -0.114608,0.0228 -0.113337,0.02782 -0.112,0.0331 -0.110662,0.03858 -0.109192,0.04427 -0.10772,0.05022 -0.106116,0.05643 -0.104444,0.06279 -0.102772,0.06934 -0.122364,0.09241 -0.114407,0.09682 -0.106517,0.101101 -0.09869,0.105313 -0.09107,0.109526 -0.08338,0.113537 -0.07583,0.117684 -0.0684,0.121695 -0.06098,0.125641 -0.05376,0.129518 -0.04654,0.13333 -0.03952,0.137074 -0.0325,0.140752 -0.02548,0.14443 -0.01865,0.147973 -0.01183,0.151518 -0.0041,0.08786 -0.0023,0.08773 -5.48e-4,0.08746 0.0015,0.08719 0.0036,0.08706 0.0058,0.08652 0.0082,0.08626 0.01069,0.08585 0.01338,0.08545 0.01605,0.08492 0.01906,0.08438 0.02206,0.08398 0.02521,0.08331 0.02855,0.08265 0.03196,0.08198 0.03557,0.08144 0.09207,0.184014 0.100298,0.170774 0.108389,0.157803 0.116346,0.145232 0.12417,0.132661 0.131792,0.120224 0.139414,0.108189 0.146837,0.09615 0.154125,0.08452 0.16128,0.07275 0.168367,0.06152 0.175255,0.05028 0.182008,0.03932 0.188694,0.02849 0.195181,0.01792 0.201599,0.0074 z m -0.744748,-2.642526 0.01137,-0.03129 0.01097,-0.03143 0.01056,-0.03169 0.01036,-0.03183 0.01023,-0.0319 0.01023,-0.03189 0.01036,-0.03183 0.01056,-0.03169 0.0109,-0.03149 0.01137,-0.03116 0.01197,-0.03082 0.01264,-0.03036 0.01337,-0.02996 0.01438,-0.02929 0.01545,-0.02868 0.01658,-0.02795 0.05075,-0.07195 0.0563,-0.06285 0.06118,-0.05363 0.06526,-0.0444 0.06867,-0.03524 0.07141,-0.02601 0.07328,-0.01678 0.07462,-0.0076 0.07516,0.0016 0.07496,0.01076 0.07402,0.01999 0.07242,0.02922 0.07001,0.03838 0.06707,0.04754 0.06319,0.05677 0.05871,0.066 0.04654,0.06499 0.03965,0.06901 0.03283,0.07235 0.02608,0.07516 0.01926,0.0773 0.0125,0.07883 0.0057,0.07977 -8.63e-4,0.07997 -0.0075,0.07957 -0.01418,0.07877 -0.02066,0.07716 -0.02721,0.07476 -0.03377,0.07208 -0.04025,0.0686 -0.04674,0.06446 -0.05309,0.05964 -0.05055,0.0464 -0.05396,0.04025 -0.05677,0.03397 -0.05911,0.02768 -0.06098,0.02153 -0.06245,0.01524 -0.06325,0.009 -0.06372,0.0028 -0.06366,-0.0035 -0.06305,-0.0098 -0.06212,-0.01591 -0.06051,-0.0222 -0.05851,-0.02835 -0.05603,-0.03477 -0.05302,-0.04092 -0.04961,-0.04707 -0.02935,-0.0325 -0.02721,-0.03343 -0.02521,-0.03424 -0.02327,-0.03517 -0.02146,-0.03597 -0.01966,-0.03678 -0.01805,-0.03784 -0.01658,-0.03865 -0.01511,-0.03958 -0.01371,-0.04025 -0.0125,-0.04132 -0.01137,-0.04212 -0.0103,-0.04306 -0.0094,-0.04386 -0.0084,-0.0448 -0.0078,-0.04574 z"
       id="path1633"
       style="fill:#ff0000;fill-opacity:1;stroke:none;stroke-width:0.136941" /><path
       id="polygon1639"
       style="clip-rule:evenodd;fill:#ff0000;fill-opacity:1;fill-rule:evenodd;stroke:none;stroke-width:0.136941"
       d="m 77.411003,81.214882 0.18261,-0.03611 0.182609,-0.03604 0.18261,-0.03591 0.18261,-0.03577 0.182677,-0.03571 0.182676,-0.03557 0.182744,-0.03544 0.182743,-0.03531 0.182811,-0.0351 0.02166,-0.0046 0.02033,-0.0053 0.01906,-0.0061 0.01779,-0.0069 0.01665,-0.0078 0.01558,-0.0086 0.01451,-0.0095 0.01344,-0.01056 0.0125,-0.01157 0.0117,-0.01257 0.01083,-0.01371 0.0101,-0.01491 0.0094,-0.01605 0.0088,-0.01732 0.0082,-0.01865 0.0076,-0.01993 0.01491,-0.04139 0.01518,-0.04126 0.01545,-0.04119 0.01565,-0.04106 0.01585,-0.04099 0.01598,-0.04106 0.01605,-0.04092 0.01618,-0.04092 0.01625,-0.04092 0.01625,-0.04085 0.01618,-0.04085 0.01618,-0.04092 0.01611,-0.04092 0.01591,-0.04106 0.01578,-0.04106 0.01558,-0.04112 0.0031,-0.0088 0.0027,-0.009 0.0023,-0.0092 0.0021,-0.0095 0.0018,-0.0098 0.0017,-0.01003 0.0015,-0.01036 0.0013,-0.0107 0.0013,-0.0111 0.0013,-0.01144 0.0013,-0.01184 0.0013,-0.0123 0.0015,-0.01277 0.0017,-0.01324 0.0019,-0.01377 0.0021,-0.01431 -0.01565,0.0042 -0.01511,0.0039 -0.01444,0.0037 -0.01398,0.0036 -0.01344,0.0035 -0.01297,0.0033 -0.01257,0.0032 -0.0121,0.0031 -0.01177,0.0031 -0.0115,0.0031 -0.01117,0.003 -0.01097,0.0031 -0.01076,0.0031 -0.01056,0.0032 -0.0105,0.0033 -0.01036,0.0034 -0.236637,0.07997 -0.236704,0.07984 -0.236704,0.07984 -0.236637,0.07977 -0.236705,0.07984 -0.236637,0.07991 -0.236637,0.07997 -0.236637,0.0801 -0.236503,0.08024 -0.236504,0.08051 -0.23637,0.08064 -0.236302,0.08091 -0.236169,0.08124 -0.23617,0.08151 -0.235968,0.08184 -0.235835,0.08231 -0.02842,0.01117 -0.02782,0.01317 -0.02715,0.01498 -0.02661,0.01658 -0.02608,0.01805 -0.02568,0.01932 -0.02521,0.02033 -0.02494,0.02126 -0.02461,0.022 -0.02441,0.02247 -0.02427,0.02274 -0.02407,0.02293 -0.02407,0.02287 -0.02407,0.0226 -0.02407,0.02213 -0.0242,0.02153 -0.005,0.0051 -0.0043,0.0059 -0.0037,0.0067 -0.0031,0.0074 -0.0027,0.0081 -0.0023,0.0088 -0.0021,0.0093 -0.0018,0.0098 -0.0017,0.01036 -0.0016,0.0107 -0.0016,0.01117 -0.0017,0.0115 -0.0019,0.01177 -0.0021,0.01197 -0.0024,0.01224 -0.0029,0.0123 0.06667,-0.01438 0.06593,-0.01431 0.06519,-0.01417 0.06459,-0.01411 0.06399,-0.01404 0.06339,-0.01391 0.06292,-0.01371 0.06252,-0.01364 0.06212,-0.01344 0.06178,-0.01331 0.06145,-0.01317 0.06132,-0.01304 0.06105,-0.01284 0.06098,-0.01264 0.06091,-0.0125 0.06091,-0.01224 0.182543,-0.03658 0.182476,-0.03644 0.182476,-0.03644 0.182543,-0.03638 0.182542,-0.03637 0.182543,-0.03624 z" /><path
       id="polygon1641"
       style="clip-rule:evenodd;fill:#ff0000;fill-opacity:1;fill-rule:evenodd;stroke:none;stroke-width:0.136941"
       d="m 69.531434,80.844246 0.01164,0.0066 0.01204,0.0062 0.01243,0.0057 0.01271,0.0053 0.01271,0.0048 0.01271,0.0043 0.01257,0.0037 0.01224,0.0032 0.01183,0.0026 0.21758,0.04366 0.217581,0.0436 0.217648,0.0434 0.217646,0.0434 0.217648,0.04326 0.217714,0.04319 0.217648,0.04319 0.217713,0.04313 0.217714,0.04313 0.217715,0.04313 0.217647,0.04313 0.217715,0.04319 0.217646,0.04326 0.217648,0.04326 0.217714,0.0434 0.217581,0.0434 0.02655,0.0055 0.02654,0.0059 0.02641,0.0062 0.02648,0.0064 0.02648,0.0066 0.02641,0.0068 0.02655,0.0068 0.02668,0.0068 0.02681,0.0067 0.02688,0.0066 0.02701,0.0064 0.02728,0.0061 0.02742,0.0058 0.02768,0.0053 0.02802,0.0049 0.02822,0.0043 -0.01431,-0.03103 -0.01498,-0.03056 -0.01571,-0.02996 -0.01658,-0.02915 -0.01738,-0.02835 -0.01832,-0.02741 -0.01932,-0.02635 -0.02039,-0.02521 -0.02153,-0.02394 -0.0228,-0.0226 -0.02401,-0.02106 -0.02541,-0.01946 -0.02675,-0.01779 -0.02822,-0.01598 -0.02982,-0.01411 -0.03136,-0.01204 -0.244996,-0.08365 -0.245062,-0.08345 -0.245062,-0.08331 -0.245129,-0.08318 -0.245197,-0.08305 -0.245128,-0.08298 -0.245263,-0.08285 -0.245263,-0.08278 -0.245262,-0.08271 -0.245331,-0.08258 -0.245329,-0.08258 -0.245329,-0.08258 -0.245398,-0.08251 -0.245329,-0.08258 -0.245329,-0.08258 -0.245398,-0.08251 -0.0064,-0.002 -0.0065,-0.0019 -0.0068,-0.0016 -0.007,-0.0015 -0.0071,-0.0013 -0.0074,-0.0013 -0.0078,-0.0012 -0.0082,-0.0012 -0.0086,-0.0012 -0.009,-0.0012 -0.0094,-0.0013 -0.01,-0.0013 -0.01056,-0.0015 -0.01116,-0.0016 -0.01176,-0.0018 -0.01243,-0.002 0.02153,0.0559 0.02113,0.0553 0.02079,0.0547 0.0206,0.05409 0.02039,0.05363 0.02019,0.05302 0.02013,0.05256 0.01999,0.05215 0.01999,0.05175 0.02006,0.05129 0.02013,0.05095 0.02026,0.05062 0.02046,0.05035 0.02073,0.05008 0.021,0.04988 0.02133,0.04961 0.0047,0.009 0.0061,0.0088 0.0074,0.0085 0.0084,0.0082 0.0094,0.0078 0.01023,0.0074 z" /><g
       id="g2349"
       transform="matrix(-0.82395989,0,0,0.82395989,159.03318,16.204298)"
       style="display:inline;fill:#ff0000;fill-opacity:1;stroke:none"><path
         class="st0"
         d="m 101.77204,98.009225 c -0.99924,-1.026995 -1.776428,-1.942963 -2.220533,-3.164254 2.137263,1.80418 4.246763,3.636116 7.216723,3.941439 -2.35932,2.13726 -5.93992,2.33155 -8.54904,0.527375 -2.664635,-1.831936 -3.802656,-5.357025 -2.636878,-8.243712 0.08327,-0.194297 0.08327,-0.666159 0.444106,-0.471863 0.333079,0.194297 0.638402,0.416349 0.527375,0.999238 -0.388592,1.859693 0.16654,3.497333 1.443344,4.885163 0.943724,1.082508 2.137263,1.665397 3.774903,1.526614 z"
         id="path905"
         style="fill:#ff0000;fill-opacity:1;stroke:none;stroke-width:0.277566" /><path
         class="st0"
         d="m 100.60626,91.597448 c 0.47186,-0.249809 0.80494,-0.02776 1.19353,0.08327 1.05475,0.305323 2.08175,0.582889 3.19201,0.277566 0.94373,-0.277566 1.27681,-0.888211 0.88821,-1.804179 -0.41635,-0.999238 -1.22129,-1.665397 -2.22052,-1.942963 -2.08175,-0.610645 -4.107983,-0.444106 -5.77338,1.138021 -0.360836,0.333079 -0.527375,0.305323 -0.860455,0 -0.416349,-0.360836 -0.111026,-0.555132 0.111027,-0.777185 2.997718,-3.247523 8.687818,-2.720148 10.963858,1.054751 0.6384,1.026994 0.86045,2.165015 0.11102,3.247523 -0.74942,1.054751 -1.83193,1.110264 -2.9977,0.832698 -1.6654,-0.388592 -3.10874,-1.193534 -4.6076,-2.109502 z"
         id="path907"
         style="fill:#ff0000;fill-opacity:1;stroke:none;stroke-width:0.277566" /><path
         class="st0"
         d="m 150.23507,95.233564 c -0.52737,0.971481 -1.02699,1.942962 -1.55437,2.914444 -0.19429,0.360836 -0.36083,0.693915 -0.86045,0.610645 -0.52738,-0.08327 -0.41635,-0.527376 -0.49962,-0.832698 -0.33308,-1.443344 -0.6384,-2.858931 -0.91597,-4.302274 -0.0555,-0.24981 -0.52738,-0.804942 0.16654,-0.804942 0.52738,0 1.36007,-0.527376 1.60988,0.527375 0.22206,0.999238 0.44411,2.026233 0.72167,3.330793 0.63841,-1.193534 1.16578,-2.192772 1.69316,-3.136496 0.19429,-0.360836 0.24981,-0.888212 0.86045,-0.777185 0.55513,0.111026 0.3886,0.610645 0.47187,0.943724 0.22205,0.943725 0.38859,1.915206 0.6384,3.10874 0.58289,-1.165777 1.05475,-2.137258 1.52661,-3.10874 0.13878,-0.249809 0.24981,-0.527375 0.41635,-0.777185 0.13878,-0.222053 0.44411,-0.249809 0.6384,-0.138783 0.33308,0.194297 0.0278,0.388593 -0.0555,0.555132 -0.88821,1.63764 -1.80418,3.247524 -2.69239,4.885163 -0.1943,0.33308 -0.3886,0.582889 -0.8327,0.555133 -0.49962,-0.05551 -0.41635,-0.416349 -0.49962,-0.721672 -0.22205,-0.915968 -0.41635,-1.831936 -0.61065,-2.747904 -0.0555,-0.05551 -0.13878,-0.05551 -0.22205,-0.08327 z"
         id="path909"
         style="fill:#ff0000;fill-opacity:1;stroke:none;stroke-width:0.277566" /><path
         class="st1"
         d="m 109.2108,93.235088 c 0.0833,0.638402 -0.0278,1.138021 -0.11102,1.609883 -0.47187,2.303799 -1.74867,3.053227 -3.96919,2.303799 -2.66464,-0.888212 -4.66311,-2.720148 -6.522808,-4.690867 -1.138021,-1.193534 -2.137259,-2.470338 -3.053227,-3.858168 1.054751,1.22129 2.276042,2.248285 3.552846,3.219766 1.915209,1.443344 3.969199,2.692391 6.384019,3.136497 1.72091,0.305322 2.7479,-0.138783 3.71938,-1.72091 z"
         id="path911"
         style="fill:#ff0000;fill-opacity:1;stroke:none;stroke-width:0.277566" /><path
         class="st0"
         d="m 136.60658,95.705426 c 0.66616,0.499619 1.24904,2.053989 1.05475,2.775661 -0.16654,0.499619 -0.61065,0.249809 -0.91597,0.277566 -0.36084,0.02776 -0.8327,0.194296 -0.88821,-0.444106 -0.0555,-0.527375 -0.0555,-1.054751 -0.13878,-1.55437 -0.0278,-0.360836 -0.22206,-0.610645 -0.61065,-0.638402 -0.49962,-0.02776 -0.47186,0.360836 -0.52737,0.666159 -0.0555,0.333079 -0.11103,0.638402 -0.16654,0.971481 -0.16654,0.999238 -0.61065,1.276804 -1.58213,1.026995 -0.30533,-0.08327 -0.33308,-0.222053 -0.27757,-0.471863 0.27757,-1.665396 0.55513,-3.358549 0.80494,-5.051702 0.0555,-0.33308 0.16654,-0.555133 0.55514,-0.527376 0.91596,0.02776 1.83193,0 2.7479,0.05551 0.72167,0.05551 1.38783,0.277566 1.4711,1.165778 0.0555,0.832698 -0.36084,1.360074 -1.11026,1.665396 -0.13879,0.02776 -0.27757,0.05551 -0.41635,0.08327 z m -0.27757,-1.55437 c 0.0278,-0.555132 -0.19429,-0.888211 -0.69391,-0.971481 -0.61065,-0.111027 -0.55514,0.388592 -0.61065,0.749428 -0.0555,0.277566 -0.11103,0.582889 -0.13878,0.860455 0,0.24981 -0.27757,0.610645 0.0833,0.777185 0.36083,0.138783 0.72167,0 0.94372,-0.305323 0.27757,-0.333079 0.36084,-0.749428 0.41635,-1.110264 z"
         id="path913"
         style="fill:#ff0000;fill-opacity:1;stroke:none;stroke-width:0.277566" /><path
         class="st0"
         d="m 128.05754,96.704664 c 0,0.416349 -0.0555,0.860455 0.16654,1.249047 0.38859,0.610646 1.41559,0.360836 1.63764,-0.499619 0.24981,-0.999237 0.88821,-0.832698 1.55437,-0.832698 0.36084,0 0.4441,0.111027 0.30532,0.471863 -0.36083,1.110264 -2.02623,1.887449 -3.55284,1.637639 -1.33232,-0.222052 -1.91521,-0.971481 -1.8597,-2.414824 0.0555,-2.581365 2.13726,-4.163492 4.49657,-3.44182 0.36084,0.111027 0.69392,0.24981 0.91597,0.555132 0.27757,0.360836 0.66616,0.832699 0.33308,1.221291 -0.30532,0.388593 -0.91597,0.16654 -1.38783,0.111026 -0.30532,-0.02776 -0.1943,-0.360835 -0.22205,-0.582888 -0.0278,-0.444106 -0.13879,-0.860455 -0.6384,-0.971482 -0.52738,-0.08327 -0.86046,0.194297 -1.11027,0.638402 -0.4441,0.915968 -0.55513,1.88745 -0.6384,2.858931 z"
         id="path915"
         style="fill:#ff0000;fill-opacity:1;stroke:none;stroke-width:0.277566" /><path
         class="st0"
         d="m 115.01193,95.483373 c -0.47186,0.582889 -0.94372,0.416349 -1.36007,0.388593 -0.66616,-0.05551 -0.94372,0.222053 -0.99924,0.860455 0,0.111026 -0.0278,0.194296 -0.0555,0.277566 -0.19429,1.22129 -0.19429,1.22129 1.08251,1.22129 0.1943,0 0.38859,0 0.58289,0 0.22205,0.02776 0.52737,-0.05551 0.49962,0.277567 0,0.249809 -0.27757,0.249809 -0.47186,0.249809 -1.08251,0 -2.16502,0 -3.24753,0 -0.41635,0 -0.49962,-0.194296 -0.4441,-0.555132 0.27756,-1.665397 0.55513,-3.35855 0.80494,-5.023946 0.0555,-0.388593 0.27756,-0.471863 0.61064,-0.471863 1.027,0 2.02624,0 3.05323,0 0.1943,0 0.44411,-0.08327 0.44411,0.222053 0,0.24981 -0.1943,0.305323 -0.41635,0.305323 -0.41635,0 -0.86046,0.02776 -1.27681,0 -0.49962,-0.02776 -0.66616,0.16654 -0.74943,0.666159 -0.24981,1.498856 -0.27756,1.498856 1.24905,1.526613 0.1943,0 0.36084,0.02776 0.69392,0.05551 z"
         id="path917"
         style="fill:#ff0000;fill-opacity:1;stroke:none;stroke-width:0.277566" /><path
         class="st0"
         d="m 125.17085,95.622156 c -0.41635,0.444106 -0.91597,0.277566 -1.33231,0.24981 -0.63841,-0.05551 -0.88822,0.222053 -0.94373,0.804941 -0.0278,0.24981 -0.0278,0.527376 -0.11103,0.777185 -0.27756,0.749429 0.11103,0.832699 0.72168,0.777185 0.41635,-0.02776 0.86045,0 1.2768,0 0.16654,0 0.27757,0.111027 0.24981,0.222053 -0.0278,0.111027 -0.13878,0.24981 -0.22205,0.24981 -1.24905,0.02776 -2.47034,0.02776 -3.71939,0 -0.30532,0 -0.22205,-0.24981 -0.1943,-0.444106 0.27757,-1.72091 0.52738,-3.414063 0.80495,-5.134972 0.0555,-0.305323 0.19429,-0.471863 0.52737,-0.471863 1.08251,0 2.16502,0 3.24753,0 0.16653,0 0.36083,0 0.36083,0.222053 0,0.24981 -0.1943,0.305323 -0.41635,0.305323 -0.38859,0 -0.77718,0.02776 -1.16578,0 -0.55513,-0.05551 -0.77718,0.138783 -0.86045,0.721672 -0.1943,1.415587 -0.24981,1.415587 1.22129,1.4711 0.13878,0 0.24981,0 0.38859,0.02776 0,0.05551 0.0278,0.138784 0.16654,0.222053 z"
         id="path919"
         style="fill:#ff0000;fill-opacity:1;stroke:none;stroke-width:0.277566" /><path
         class="st0"
         d="m 117.78759,98.758653 c -2.16501,0 -2.16501,0 -1.80417,-2.165015 0.19429,-1.082508 0.36083,-2.192772 0.52737,-3.27528 0.16654,-1.054751 0.97148,-0.527376 1.4711,-0.555132 0.66616,-0.05551 0.30532,0.499619 0.27757,0.777185 -0.1943,1.38783 -0.41635,2.775661 -0.66616,4.163491 -0.0833,0.471862 0.0278,0.582889 0.47186,0.582889 0.49962,0 0.97148,0 1.4711,0 0.16654,0 0.33308,0.08327 0.30532,0.277566 -0.0278,0.138783 -0.16654,0.194296 -0.27756,0.194296 -0.58289,0 -1.19354,0 -1.77643,0 z"
         id="path921"
         style="fill:#ff0000;fill-opacity:1;stroke:none;stroke-width:0.277566" /><path
         class="st1"
         d="m 144.12862,94.678432 c -0.0278,-0.527376 0.0277,-1.138021 -0.69392,-1.415587 -0.13878,-0.05551 -0.33308,-0.111027 -0.24981,-0.33308 0.0555,-0.194296 0.22206,-0.194296 0.3886,-0.194296 1.22129,0 2.16501,0.888212 2.24828,2.137259 0.13878,2.137259 -1.22129,3.747142 -3.24752,3.885925 -0.1943,0 -0.49962,0.16654 -0.55513,-0.194296 -0.0278,-0.277566 0.24981,-0.24981 0.41635,-0.277566 0.66615,-0.111027 0.99923,-0.582889 1.22129,-1.138021 0.30532,-0.777185 0.38859,-1.609883 0.47186,-2.470338 z"
         id="path923"
         style="fill:#ff0000;fill-opacity:1;stroke:none;stroke-width:0.277566" /><path
         class="st0"
         d="m 139.10467,96.316072 c 0.0278,-1.97072 1.27681,-3.414063 3.08099,-3.580603 0.16654,-0.02776 0.41634,-0.138783 0.49961,0.111027 0.0555,0.138783 -0.0277,0.277566 -0.16654,0.305322 -1.41558,0.416349 -1.44334,1.665397 -1.60988,2.747904 -0.11102,0.804942 -0.38859,1.72091 0.52738,2.303799 0.11102,0.08327 0.16654,0.194296 0.0555,0.333079 -0.11103,0.138783 -0.27757,0.138783 -0.44411,0.111027 -1.16577,-0.02776 -1.97071,-0.971482 -1.94296,-2.331555 z"
         id="path925"
         style="fill:#ff0000;fill-opacity:1;stroke:none;stroke-width:0.277566" /></g></g></svg>
